<svg width="90" height="89" viewBox="0 0 90 89" fill="none" xmlns="http://www.w3.org/2000/svg">
<path d="M86.5983 22.5166C84.28 13.9833 75.4051 5.10672 66.8701 2.78838C61.6366 1.48432 54.6264 0.140588 45.1099 0.118164C35.5933 0.140588 28.5831 1.48432 23.3496 2.78838C14.8163 5.10672 5.93972 13.9816 3.62139 22.5166C2.31733 27.7501 0.973596 34.7603 0.951172 44.2769C0.973596 53.7934 2.31733 60.8036 3.62139 66.0371C5.93972 74.5721 14.8163 83.447 23.3496 85.7653C28.5831 87.0694 35.5968 88.4131 45.1099 88.4355C54.6247 88.4131 61.6366 87.0694 66.8701 85.7653C75.4051 83.447 84.28 74.5721 86.5983 66.0371C87.9024 60.8036 89.2461 53.7899 89.2686 44.2769C89.2461 34.7603 87.9024 27.7501 86.5983 22.5166Z" fill="#E5F4D9"/>
<path d="M45.1093 14.9531C39.3095 14.9531 33.64 16.673 28.8177 19.8951C23.9954 23.1173 20.2368 27.6971 18.0173 33.0554C15.7979 38.4137 15.2171 44.3098 16.3486 49.9981C17.4801 55.6864 20.273 60.9115 24.374 65.0126C28.4751 69.1136 33.7001 71.9065 39.3884 73.0379C45.0768 74.1694 50.9729 73.5887 56.3312 71.3692C61.6894 69.1497 66.2692 65.3912 69.4914 60.5689C72.7136 55.7465 74.4334 50.077 74.4334 44.2773C74.4334 36.5 71.3439 29.0413 65.8446 23.542C60.3452 18.0426 52.8865 14.9531 45.1093 14.9531Z" fill="url(#paint0_linear_128_3723)"/>
<path d="M61.8416 39.4208L44.2075 57.9329C43.7272 58.4372 43.1502 58.8393 42.5108 59.1152C41.8715 59.3912 41.1831 59.5353 40.4867 59.5388H40.4643C39.772 59.5388 39.0868 59.3998 38.4492 59.1302C37.8116 58.8606 37.2345 58.4658 36.7522 57.9691L27.3978 48.3318C26.8891 47.8526 26.4827 47.2752 26.2033 46.6346C25.9238 45.994 25.7769 45.3034 25.7716 44.6045C25.7663 43.9056 25.9027 43.2129 26.1724 42.5681C26.4421 41.9233 26.8397 41.3399 27.3411 40.853C27.8425 40.366 28.4373 39.9857 29.0897 39.7349C29.7421 39.4842 30.4385 39.3682 31.137 39.3939C31.8354 39.4197 32.5214 39.5866 33.1536 39.8847C33.7857 40.1829 34.3509 40.6059 34.8151 41.1285L40.4212 46.9053L54.3398 32.2881C54.8081 31.7955 55.3689 31.4 55.9901 31.1242C56.6113 30.8483 57.2807 30.6975 57.9602 30.6804C58.6397 30.6632 59.3158 30.7801 59.9502 31.0243C60.5845 31.2685 61.1645 31.6352 61.657 32.1035C62.1496 32.5719 62.5451 33.1326 62.821 33.7538C63.0968 34.375 63.2476 35.0444 63.2648 35.7239C63.2819 36.4034 63.165 37.0796 62.9209 37.7139C62.6767 38.3482 62.3099 38.9282 61.8416 39.4208Z" fill="url(#paint1_linear_128_3723)"/>
<defs>
<linearGradient id="paint0_linear_128_3723" x1="65.8484" y1="65.0163" x2="24.3702" y2="23.5382" gradientUnits="userSpaceOnUse">
<stop stop-color="#13B601"/>
<stop offset="1" stop-color="#CBF4B4"/>
</linearGradient>
<linearGradient id="paint1_linear_128_3723" x1="53.1548" y1="48.989" x2="36.3469" y2="32.1794" gradientUnits="userSpaceOnUse">
<stop stop-color="#CBF4B4"/>
<stop offset="0.57" stop-color="white"/>
<stop offset="1" stop-color="white"/>
</linearGradient>
</defs>
</svg>
