<svg width="21" height="21" viewBox="0 0 21 21" fill="none" xmlns="http://www.w3.org/2000/svg">
<path d="M17.1758 2.29785H15.1758V1.29785C15.1758 1.03264 15.0704 0.778281 14.8829 0.590745C14.6954 0.403208 14.441 0.297852 14.1758 0.297852C13.9106 0.297852 13.6562 0.403208 13.4687 0.590745C13.2811 0.778281 13.1758 1.03264 13.1758 1.29785V2.29785H7.17578V1.29785C7.17578 1.03264 7.07042 0.778281 6.88289 0.590745C6.69535 0.403208 6.441 0.297852 6.17578 0.297852C5.91056 0.297852 5.65621 0.403208 5.46867 0.590745C5.28114 0.778281 5.17578 1.03264 5.17578 1.29785V2.29785H3.17578C2.38013 2.29785 1.61707 2.61392 1.05446 3.17653C0.491852 3.73914 0.175781 4.5022 0.175781 5.29785V17.2979C0.175781 18.0935 0.491852 18.8566 1.05446 19.4192C1.61707 19.9818 2.38013 20.2979 3.17578 20.2979H17.1758C17.9714 20.2979 18.7345 19.9818 19.2971 19.4192C19.8597 18.8566 20.1758 18.0935 20.1758 17.2979V5.29785C20.1758 4.5022 19.8597 3.73914 19.2971 3.17653C18.7345 2.61392 17.9714 2.29785 17.1758 2.29785ZM18.1758 17.2979C18.1758 17.5631 18.0704 17.8174 17.8829 18.005C17.6954 18.1925 17.441 18.2979 17.1758 18.2979H3.17578C2.91056 18.2979 2.65621 18.1925 2.46867 18.005C2.28114 17.8174 2.17578 17.5631 2.17578 17.2979V10.2979H18.1758V17.2979ZM18.1758 8.29785H2.17578V5.29785C2.17578 5.03264 2.28114 4.77828 2.46867 4.59074C2.65621 4.40321 2.91056 4.29785 3.17578 4.29785H5.17578V5.29785C5.17578 5.56307 5.28114 5.81742 5.46867 6.00496C5.65621 6.19249 5.91056 6.29785 6.17578 6.29785C6.441 6.29785 6.69535 6.19249 6.88289 6.00496C7.07042 5.81742 7.17578 5.56307 7.17578 5.29785V4.29785H13.1758V5.29785C13.1758 5.56307 13.2811 5.81742 13.4687 6.00496C13.6562 6.19249 13.9106 6.29785 14.1758 6.29785C14.441 6.29785 14.6954 6.19249 14.8829 6.00496C15.0704 5.81742 15.1758 5.56307 15.1758 5.29785V4.29785H17.1758C17.441 4.29785 17.6954 4.40321 17.8829 4.59074C18.0704 4.77828 18.1758 5.03264 18.1758 5.29785V8.29785Z" fill="black"/>
</svg>
