<svg width="185" height="37" viewBox="0 0 185 37" fill="none" xmlns="http://www.w3.org/2000/svg">
<path d="M3 36.6667C4.47276 36.6667 5.66667 35.4728 5.66667 34C5.66667 32.5272 4.47276 31.3333 3 31.3333C1.52724 31.3333 0.333333 32.5272 0.333333 34C0.333333 35.4728 1.52724 36.6667 3 36.6667ZM177 34L177 34.5L177.5 34.5L177.5 34L177 34ZM176.5 8L176.5 34L177.5 34L177.5 8L176.5 8ZM177 33.5L3 33.5L3 34.5L177 34.5L177 33.5Z" fill="#C8D5DA"/>
<circle cx="177" cy="8" r="8" fill="white"/>
<circle cx="177" cy="8" r="5" fill="#CB5D14"/>
</svg>
