
<svg width="77" height="131" viewBox="0 0 77 131" fill="none" xmlns="http://www.w3.org/2000/svg">
    <circle cx="8" cy="123" r="8" fill="white"/>
    <circle cx="8" cy="123" r="5" fill="#0382D1"/>
    <path d="M74 5.66666C75.4728 5.66666 76.6667 4.47275 76.6667 3C76.6667 1.52723 75.4728 0.333325 74 0.333325C72.5272 0.333325 71.3333 1.52723 71.3333 3C71.3333 4.47275 72.5272 5.66666 74 5.66666ZM8 3L8 2.5L7.5 2.5L7.5 3L8 3ZM8.5 109L8.5 3L7.5 3L7.5 109L8.5 109ZM8 3.5L74 3.5L74 2.5L8 2.5L8 3.5Z" fill="#C8D5DA"/>
    </svg>
    