
<svg width="260" height="64" viewBox="0 0 260 64" fill="none" xmlns="http://www.w3.org/2000/svg">
    <circle cx="8" cy="56" r="8" fill="white"/>
    <circle cx="8" cy="56" r="5" fill="#C75508"/>
    <path d="M257 0.333354C258.473 0.333354 259.667 1.52726 259.667 3.00002C259.667 4.47278 258.473 5.66669 257 5.66669C255.527 5.66669 254.333 4.47278 254.333 3.00002C254.333 1.52726 255.527 0.333354 257 0.333354ZM237 61L237.5 61L237.5 61.5L237 61.5L237 61ZM237 3.00025L236.5 3.00025L236.5 2.50025L237 2.50025L237 3.00025ZM16 60.5L237 60.5L237 61.5L16 61.5L16 60.5ZM236.5 61L236.5 3.00025L237.5 3.00025L237.5 61L236.5 61ZM237 2.50025L257 2.50002L257 3.50002L237 3.50025L237 2.50025Z" fill="#C8D5DA"/>
    </svg>
    