
<svg width="143" height="69" viewBox="0 0 143 69" fill="none" xmlns="http://www.w3.org/2000/svg">
    <circle cx="135" cy="61" r="8" fill="white"/>
    <circle cx="135" cy="61" r="5" fill="#019161"/>
    <path d="M3 5.66668C4.47276 5.66668 5.66666 4.47277 5.66666 3.00001C5.66666 1.52725 4.47276 0.333343 3 0.333344C1.52724 0.333344 0.333331 1.52725 0.333331 3.00001C0.333331 4.47277 1.52724 5.66668 3 5.66668ZM134 3L134.5 3L134.5 2.5L134 2.5L134 3ZM134.5 53L134.5 3L133.5 3L133.5 53L134.5 53ZM134 2.5L3 2.50001L3 3.50001L134 3.5L134 2.5Z" fill="#C8D5DA"/>
    </svg>
    