
<svg width="72" height="74" viewBox="0 0 72 74" fill="none" xmlns="http://www.w3.org/2000/svg">
    <circle cx="64" cy="8" r="8" fill="white"/>
    <circle cx="64" cy="8" r="5" fill="#415A6C"/>
    <path d="M3 73.6667C4.47276 73.6667 5.66667 72.4728 5.66667 71C5.66667 69.5272 4.47276 68.3333 3 68.3333C1.52724 68.3333 0.333333 69.5272 0.333333 71C0.333333 72.4728 1.52724 73.6667 3 73.6667ZM64 71L64 71.5L64.5 71.5L64.5 71L64 71ZM63.5 18L63.5 71L64.5 71L64.5 18L63.5 18ZM64 70.5L3 70.5L3 71.5L64 71.5L64 70.5Z" fill="#C8D5DA"/>
    </svg>
    