<svg width="72" height="130" viewBox="0 0 72 130" fill="none" xmlns="http://www.w3.org/2000/svg">
<circle cx="64" cy="122" r="8" fill="white"/>
<circle cx="64" cy="122" r="5" fill="#425B6D"/>
<path d="M3 5.66666C4.47275 5.66666 5.66666 4.47276 5.66666 3C5.66666 1.52724 4.47275 0.333336 2.99999 0.333336C1.52724 0.333336 0.333328 1.52724 0.333328 3C0.333328 4.47276 1.52724 5.66666 3 5.66666ZM64 3L64.5 3L64.5 2.5L64 2.5L64 3ZM64.5 118L64.5 3L63.5 3L63.5 118L64.5 118ZM64 2.5L2.99999 2.5L2.99999 3.5L64 3.5L64 2.5Z" fill="#C8D5DA"/>
</svg>
