<svg width="43" height="131" viewBox="0 0 43 131" fill="none" xmlns="http://www.w3.org/2000/svg">
<path d="M40 125.333C41.4728 125.333 42.6667 126.527 42.6667 128C42.6667 129.473 41.4728 130.666 40 130.666C38.5272 130.666 37.3333 129.473 37.3333 128C37.3333 126.527 38.5272 125.333 40 125.333ZM8.00003 128L8.00004 128.5L7.50003 128.5L7.50003 128L8.00003 128ZM8.5 9L8.50003 128L7.50003 128L7.5 9L8.5 9ZM8.00003 127.5L40 127.5L40 128.5L8.00004 128.5L8.00003 127.5Z" fill="#C8D5DA"/>
<circle cx="8" cy="8" r="8" fill="white"/>
<circle cx="8" cy="8" r="5" fill="#019161"/>
</svg>
