<svg width="257" height="27" viewBox="0 0 257 27" fill="none" xmlns="http://www.w3.org/2000/svg">
<path d="M254 5.66666C255.473 5.66666 256.667 4.47275 256.667 2.99999C256.667 1.52723 255.473 0.333323 254 0.333323C252.527 0.333323 251.333 1.52723 251.333 2.99999C251.333 4.47275 252.527 5.66666 254 5.66666ZM8 3L8 2.5L7.5 2.5L7.5 3L8 3ZM8.5 19L8.5 3L7.5 3L7.5 19L8.5 19ZM8 3.5L254 3.49999L254 2.49999L8 2.5L8 3.5Z" fill="#C8D5DA"/>
<circle cx="8" cy="19" r="8" fill="white"/>
<circle cx="8" cy="19" r="5" fill="#0181D1"/>
</svg>
