<svg width="57" height="57" viewBox="0 0 57 57" fill="none" xmlns="http://www.w3.org/2000/svg">
<path d="M52.4662 22.5412C52.8549 24.614 53.114 26.4276 53.114 28.889C53.114 42.6208 41.9731 53.7617 28.2412 53.7617C14.5094 53.7617 3.36852 42.6208 3.36852 28.889C3.36852 15.1572 14.5094 3.62761 28.2412 3.62761C29.6662 3.62761 31.4799 3.62761 33.164 4.01625C33.8117 2.97988 34.589 1.94352 35.6253 1.16625C33.2935 0.518519 31.2208 0.129883 28.5003 0.129883C12.6958 0.129883 0.129883 13.0844 0.129883 28.5003C0.129883 43.9162 13.0844 56.8708 28.5003 56.8708C43.9162 56.8708 56.8708 43.9162 56.8708 28.5003C56.8708 25.6503 56.4822 22.4117 55.4458 19.4322C54.6685 20.5981 53.6322 21.8935 52.4662 22.5412ZM45.0822 21.8935C50.7822 21.8935 55.5753 17.2299 55.5753 11.4003C55.5753 5.57079 50.9117 0.907155 45.0822 0.907155C39.3822 0.907155 34.589 5.57079 34.589 11.4003C34.589 17.2299 39.1231 21.8935 45.0822 21.8935Z" fill="#707070"/>
<path d="M20.2744 28.5002C20.2744 24.2252 23.7721 20.4684 28.3062 20.4684C32.7108 20.4684 36.338 23.9661 36.338 28.5002C36.338 32.9048 32.8403 36.532 28.3062 36.532C23.7721 36.7911 20.2744 33.1638 20.2744 28.5002ZM9.39258 28.5002C9.39258 38.9934 18.0721 47.5434 28.4358 47.5434C38.7994 47.5434 47.6085 38.9934 47.6085 28.5002C47.6085 27.0752 47.6085 25.6502 47.2199 24.6138C46.5721 24.6138 45.7948 24.6138 45.1471 24.6138C37.5039 24.6138 31.4153 18.5252 31.4153 10.882C31.4153 10.4934 31.4153 10.2343 31.4153 9.84567C30.3789 9.84567 29.3426 9.45703 28.5653 9.45703C18.0721 9.45703 9.39258 18.007 9.39258 28.5002Z" fill="#0080D0"/>
</svg>
