<svg width="194" height="57" viewBox="0 0 194 57" fill="none" xmlns="http://www.w3.org/2000/svg">
<g clip-path="url(#clip0_279_3606)">
<g clip-path="url(#clip1_279_3606)">
<path d="M52.4662 22.5412C52.8549 24.614 53.114 26.4276 53.114 28.889C53.114 42.6208 41.9731 53.7617 28.2412 53.7617C14.5094 53.7617 3.36852 42.6208 3.36852 28.889C3.36852 15.1572 14.5094 3.62761 28.2412 3.62761C29.6662 3.62761 31.4799 3.62761 33.164 4.01625C33.8117 2.97988 34.589 1.94352 35.6253 1.16625C33.2935 0.518519 31.2208 0.129883 28.5003 0.129883C12.6958 0.129883 0.129883 13.0844 0.129883 28.5003C0.129883 43.9162 13.0844 56.8708 28.5003 56.8708C43.9162 56.8708 56.8708 43.9162 56.8708 28.5003C56.8708 25.6503 56.4822 22.4117 55.4458 19.4322C54.6685 20.5981 53.6322 21.8935 52.4662 22.5412ZM45.0822 21.8935C50.7822 21.8935 55.5753 17.2299 55.5753 11.4003C55.5753 5.57079 50.9117 0.907155 45.0822 0.907155C39.3822 0.907155 34.589 5.57079 34.589 11.4003C34.589 17.2299 39.1231 21.8935 45.0822 21.8935Z" fill="#707070"/>
<path d="M20.2744 28.5002C20.2744 24.2252 23.7721 20.4684 28.3062 20.4684C32.7108 20.4684 36.338 23.9661 36.338 28.5002C36.338 32.9048 32.8403 36.532 28.3062 36.532C23.7721 36.7911 20.2744 33.1638 20.2744 28.5002ZM9.39258 28.5002C9.39258 38.9934 18.0721 47.5434 28.4358 47.5434C38.7994 47.5434 47.6085 38.9934 47.6085 28.5002C47.6085 27.0752 47.6085 25.6502 47.2199 24.6138C46.5721 24.6138 45.7948 24.6138 45.1471 24.6138C37.5039 24.6138 31.4153 18.5252 31.4153 10.882C31.4153 10.4934 31.4153 10.2343 31.4153 9.84567C30.3789 9.84567 29.3426 9.45703 28.5653 9.45703C18.0721 9.45703 9.39258 18.007 9.39258 28.5002Z" fill="#0080D0"/>
</g>
<path d="M67.8672 30.2358C67.8672 24.9958 71.8525 21.0938 77.2673 21.0938C82.682 21.0938 86.6451 24.9689 86.6451 30.2358C86.6451 35.5026 82.633 39.3733 77.2673 39.3733C71.9015 39.3733 67.8672 35.4713 67.8672 30.2358ZM84.7526 30.2358C84.7526 25.9489 81.5599 22.7897 77.2673 22.7897C72.9747 22.7897 69.7285 25.9489 69.7285 30.2358C69.7285 34.5226 72.948 37.6818 77.2673 37.6818C81.5866 37.6818 84.7526 34.5226 84.7526 30.2358Z" fill="#707070"/>
<path d="M108.664 37.5785V39.2208H94.001V37.9097L105.855 22.8923H94.1791V21.25H108.357V22.5611L96.5302 37.5785H108.664Z" fill="#707070"/>
<path d="M115.691 30.2358C115.691 24.9958 119.677 21.0938 125.092 21.0938C130.506 21.0938 134.469 24.9689 134.469 30.2358C134.469 35.5026 130.457 39.3733 125.092 39.3733C119.726 39.3733 115.691 35.4713 115.691 30.2358ZM132.581 30.2358C132.581 25.9489 129.389 22.7897 125.096 22.7897C120.803 22.7897 117.557 25.9489 117.557 30.2358C117.557 34.5226 120.777 37.6818 125.096 37.6818C129.415 37.6818 132.581 34.5226 132.581 30.2358Z" fill="#707070"/>
<path d="M143.82 21.25H145.713V37.5785H155.727V39.2208H143.82V21.25Z" fill="#707070"/>
<path d="M163.979 21.25H165.871V39.2208H163.979V21.25Z" fill="#707070"/>
<path d="M175.223 30.2358C175.223 24.9958 179.208 21.0938 184.623 21.0938C190.037 21.0938 194.001 24.9689 194.001 30.2358C194.001 35.5026 189.989 39.3733 184.623 39.3733C179.257 39.3733 175.223 35.4713 175.223 30.2358ZM192.108 30.2358C192.108 25.9489 188.915 22.7897 184.623 22.7897C180.33 22.7897 177.084 25.9489 177.084 30.2358C177.084 34.5226 180.303 37.6818 184.623 37.6818C188.942 37.6818 192.108 34.5226 192.108 30.2358Z" fill="#707070"/>
</g>
<defs>
<clipPath id="clip0_279_3606">
<rect width="194" height="57" fill="white"/>
</clipPath>
<clipPath id="clip1_279_3606">
<rect width="57" height="57" fill="white"/>
</clipPath>
</defs>
</svg>
