<svg width="18" height="18" viewBox="0 0 18 18" fill="none" xmlns="http://www.w3.org/2000/svg">
<path fillRule="evenodd" clipRule="evenodd" d="M8.54917 7.01735C8.61259 7.08078 8.71554 7.08078 8.77896 7.01735L15.4429 0.353383C15.5064 0.289961 15.6093 0.289961 15.6727 0.353383L16.9749 1.65554C17.0383 1.71896 17.0383 1.82191 16.9749 1.88533L10.3109 8.5493C10.2475 8.61272 10.2475 8.71567 10.3109 8.77909L16.9749 15.4431C17.0383 15.5065 17.0383 15.6094 16.9749 15.6729L15.6727 16.975C15.6093 17.0384 15.5064 17.0384 15.4429 16.975L8.77896 10.311C8.71554 10.2476 8.61259 10.2476 8.54917 10.311L1.8852 16.975C1.82177 17.0384 1.71883 17.0384 1.65541 16.975L0.35325 15.6729C0.289828 15.6094 0.289828 15.5065 0.35325 15.4431L7.01722 8.77909C7.08064 8.71567 7.08064 8.61272 7.01722 8.5493L0.35325 1.88533C0.289828 1.82191 0.289828 1.71896 0.35325 1.65554L1.65541 0.353383C1.71883 0.289961 1.82177 0.289961 1.8852 0.353383L8.54917 7.01735Z" fill="#0080D0"/>
</svg>
