<svg width="18" height="15" viewBox="0 0 18 15" fill="none" xmlns="http://www.w3.org/2000/svg">
<path d="M15.5054 2.04179C13.9479 0.722894 11.4839 0.499325 11.3784 0.491283C11.2148 0.476807 11.0589 0.573312 10.9917 0.732544C10.9856 0.742195 10.9321 0.872476 10.8725 1.07514C11.9027 1.25849 13.1683 1.62682 14.3132 2.37473C14.4966 2.49375 14.5532 2.74788 14.44 2.94089C14.3651 3.06795 14.2383 3.13711 14.1068 3.13711C14.0365 3.13711 13.9647 3.1162 13.9005 3.07439C11.9317 1.78927 9.47385 1.72493 9 1.72493C8.52615 1.72493 6.06675 1.78927 4.09952 3.07439C3.9161 3.19502 3.67459 3.13551 3.56148 2.9425C3.44684 2.74788 3.5034 2.49536 3.68682 2.37473C4.83169 1.62843 6.09732 1.25849 7.12755 1.07674C7.06793 0.872476 7.01444 0.743803 7.00985 0.732544C6.94107 0.573312 6.78668 0.473591 6.6216 0.491283C6.51613 0.499325 4.05214 0.722894 2.47317 2.05948C1.64929 2.86208 0 7.55219 0 11.607C0 11.6794 0.0183424 11.7485 0.0519703 11.8113C1.1892 13.9151 4.29365 14.4651 5.00136 14.4893C5.00442 14.4893 5.009 14.4893 5.01359 14.4893C5.13893 14.4893 5.25662 14.4265 5.32999 14.3204L6.04535 13.2846C4.11481 12.7602 3.12891 11.8692 3.07235 11.8161C2.91033 11.6665 2.89504 11.4059 3.03872 11.2354C3.18088 11.065 3.4285 11.0489 3.59052 11.1985C3.61345 11.221 5.42935 12.8422 9 12.8422C12.5768 12.8422 14.3927 11.2145 14.411 11.1985C14.573 11.0505 14.8191 11.065 14.9628 11.2371C15.105 11.4075 15.0897 11.6665 14.9276 11.8161C14.8711 11.8692 13.8852 12.7602 11.9547 13.2846L12.67 14.3204C12.7434 14.4265 12.8611 14.4893 12.9864 14.4893C12.991 14.4893 12.9956 14.4893 12.9986 14.4893C13.7064 14.4651 16.8108 13.9151 17.948 11.8113C17.9817 11.7485 18 11.6794 18 11.607C18 7.55219 16.3507 2.86208 15.5054 2.04179ZM6.45652 9.95998C5.6999 9.95998 5.08696 9.22333 5.08696 8.31297C5.08696 7.40261 5.6999 6.66596 6.45652 6.66596C7.21315 6.66596 7.82609 7.40261 7.82609 8.31297C7.82609 9.22333 7.21315 9.95998 6.45652 9.95998ZM11.5435 9.95998C10.7869 9.95998 10.1739 9.22333 10.1739 8.31297C10.1739 7.40261 10.7869 6.66596 11.5435 6.66596C12.3001 6.66596 12.913 7.40261 12.913 8.31297C12.913 9.22333 12.3001 9.95998 11.5435 9.95998Z" fill="#5C5C5C"/>
</svg>
