<svg width="20" height="21" viewBox="0 0 20 21" fill="none" xmlns="http://www.w3.org/2000/svg">
<path d="M0.00195312 10.5533C0.00311667 15.503 3.58036 19.7174 8.43895 20.4932V13.4611H5.90195V10.5533H8.44195V8.3398C8.32841 7.29092 8.68447 6.24558 9.41359 5.48728C10.1427 4.72898 11.1693 4.33632 12.215 4.41579C12.9655 4.42799 13.7141 4.49524 14.455 4.61702V7.09116H13.191C12.7558 7.03382 12.3183 7.17842 12.0017 7.48423C11.6851 7.79005 11.5237 8.22398 11.563 8.66378V10.5533H14.334L13.891 13.4621H11.563V20.4932C16.8174 19.6576 20.502 14.8293 19.9475 9.50601C19.3929 4.18273 14.7932 0.228098 9.48078 0.507054C4.16831 0.78601 0.0027976 5.2009 0.00195312 10.5533Z" fill="#5C5C5C"/>
</svg>
