<svg width="60" height="60" viewBox="0 0 60 60" fill="none" xmlns="http://www.w3.org/2000/svg">
<g filter="url(#filter0_i_384_1182)">
<rect width="60" height="60" rx="17.7273" fill="#EEF9FF"/>
</g>
<g clip-path="url(#clip0_384_1182)">
<g filter="url(#filter1_i_384_1182)">
<path d="M19.4603 46.0727C18.9264 45.9257 18.4157 45.7245 18.0289 45.3145C17.5569 44.8116 17.3403 44.2003 17.3325 43.5194C17.3248 39.5038 17.3325 35.4882 17.3325 31.4727C17.3325 31.4108 17.3403 31.3489 17.348 31.2715C25.5417 31.2715 33.7199 31.2715 41.929 31.2715C41.929 31.4185 41.929 31.5423 41.929 31.6661C41.929 35.465 41.9058 39.264 41.9445 43.0707C41.96 44.5485 41.4184 45.6936 39.8013 46.0805C33.0235 46.0727 26.238 46.0727 19.4603 46.0727Z" fill="#0080D0"/>
</g>
<g filter="url(#filter2_f_384_1182)">
<path d="M20.6948 45.1749C20.2257 45.0526 19.777 44.8853 19.4371 44.5442C19.0224 44.1259 18.8321 43.6175 18.8253 43.0511C18.8185 39.7109 18.8253 36.3708 18.8253 33.0306C18.8253 32.9791 18.8321 32.9276 18.8389 32.8633C26.0382 32.8633 33.2239 32.8633 40.4367 32.8633C40.4367 32.9856 40.4367 33.0885 40.4367 33.1915C40.4367 36.3515 40.4163 39.5114 40.4503 42.6778C40.4639 43.9071 39.9881 44.8596 38.5672 45.1813C32.612 45.1749 26.65 45.1749 20.6948 45.1749Z" fill="url(#paint0_linear_384_1182)"/>
</g>
<g filter="url(#filter3_f_384_1182)">
<path d="M22.0236 44.0444C21.6309 43.9421 21.2553 43.802 20.9708 43.5165C20.6236 43.1663 20.4643 42.7407 20.4586 42.2666C20.4529 39.4705 20.4586 36.6744 20.4586 33.8784C20.4586 33.8353 20.4643 33.7922 20.47 33.7383C26.4965 33.7383 32.5117 33.7383 38.5497 33.7383C38.5497 33.8406 38.5497 33.9268 38.5497 34.013C38.5497 36.6583 38.5326 39.3035 38.561 41.9541C38.5724 42.9831 38.1741 43.7804 36.9847 44.0498C31.9995 44.0444 27.0087 44.0444 22.0236 44.0444Z" fill="url(#paint1_linear_384_1182)"/>
</g>
<g filter="url(#filter4_i_384_1182)">
<path d="M43.43 29.964C34.2305 29.964 25.0465 29.964 15.847 29.964C15.8315 29.9253 15.8083 29.8867 15.8083 29.848C15.8083 28.7648 15.7696 27.6893 15.8238 26.6061C15.8934 25.1051 16.9302 24.1921 18.4699 24.1843C20.4429 24.1766 22.4236 24.1843 24.3966 24.1843C24.5126 24.1843 24.621 24.1843 24.737 24.1843C23.6383 23.9445 22.6016 23.5654 21.6344 23.0083C20.6286 22.4357 19.7465 21.7239 19.0579 20.78C17.967 19.2944 17.9051 17.7625 18.8026 16.1764C19.8858 14.2498 21.5802 13.2517 23.7234 12.9577C24.1722 12.8958 24.6287 12.8803 25.0775 12.9268C26.0059 13.0351 26.6713 13.5999 27.2207 14.3117C28.2497 15.6502 28.7758 17.2054 29.1782 18.8225C29.3406 19.4879 29.4567 20.1765 29.596 20.8496C29.6114 20.9347 29.6424 21.0198 29.7275 21.105C29.7817 20.8032 29.8358 20.5015 29.89 20.1997C30.1917 18.6291 30.5786 17.0739 31.3291 15.6502C31.6463 15.0467 32.0564 14.4742 32.4897 13.9481C33.1473 13.1434 34.0371 12.8184 35.0816 12.8881C36.8457 13.0119 38.4164 13.5921 39.6466 14.8997C40.5518 15.8669 41.1785 16.9888 41.1863 18.366C41.1863 19.4492 40.722 20.3544 40.0334 21.1436C38.6407 22.7375 36.8689 23.6814 34.8031 24.0915C34.7567 24.0992 34.7025 24.107 34.6561 24.1843C34.7644 24.1843 34.8727 24.1843 34.981 24.1843C36.9231 24.1843 38.8728 24.1843 40.8149 24.1843C41.8826 24.1843 42.7337 24.6022 43.2057 25.5925C43.3604 25.9252 43.4455 26.3121 43.4533 26.6835C43.4842 27.7202 43.4687 28.757 43.461 29.7938C43.461 29.848 43.4455 29.9021 43.43 29.964ZM31.9868 22.8922C34.7799 21.6388 37.6813 17.9327 37.5034 15.8901C34.4704 17.2673 32.892 19.7664 31.9868 22.8922ZM27.3599 22.9C27.2284 20.4473 23.8318 16.1686 21.851 15.9443C22.4623 19.2326 24.6132 21.2674 27.3599 22.9Z" fill="#0080D0"/>
</g>
<g filter="url(#filter5_f_384_1182)">
<path d="M16.7539 27.2727C16.7539 25.9884 17.795 24.9473 19.0793 24.9473H38.979C40.8137 24.9473 42.301 26.4346 42.301 28.2693V29.6594H16.7539V27.2727Z" fill="url(#paint2_linear_384_1182)"/>
</g>
<g filter="url(#filter6_f_384_1182)">
<path d="M17.5234 27.4133C17.5234 26.129 18.5646 25.0879 19.8489 25.0879H38.2106C40.0453 25.0879 41.5327 26.5752 41.5327 28.4099V29.5164H17.5234V27.4133Z" fill="url(#paint3_linear_384_1182)"/>
</g>
<g filter="url(#filter7_f_384_1182)">
<path d="M31.4727 20.2528C31.7748 18.0941 33.2755 13.9672 36.8614 14.7281" stroke="url(#paint4_linear_384_1182)" stroke-width="0.996608" stroke-linecap="round"/>
</g>
<g filter="url(#filter8_f_384_1182)">
<path d="M20.3064 16.8428C19.9762 17.2515 19.6836 18.4741 21.1543 20.0952" stroke="url(#paint5_linear_384_1182)" stroke-width="0.996608" stroke-linecap="round"/>
</g>
<g filter="url(#filter9_f_384_1182)">
<path d="M20.3445 40.3721C20.1703 42.7648 19.9353 43.8001 22.1279 44.1133" stroke="url(#paint6_linear_384_1182)" stroke-width="0.996608" stroke-linecap="round"/>
</g>
</g>
<g filter="url(#filter10_f_384_1182)">
<path d="M20.1347 25.7715C19.5167 25.7788 18.2288 26.1168 18.0215 27.4107" stroke="url(#paint7_linear_384_1182)" stroke-width="0.996608" stroke-linecap="round"/>
</g>
<defs>
<filter id="filter0_i_384_1182" x="0" y="0" width="64.6364" height="66" filterUnits="userSpaceOnUse" color-interpolation-filters="sRGB">
<feFlood flood-opacity="0" result="BackgroundImageFix"/>
<feBlend mode="normal" in="SourceGraphic" in2="BackgroundImageFix" result="shape"/>
<feColorMatrix in="SourceAlpha" type="matrix" values="0 0 0 0 0 0 0 0 0 0 0 0 0 0 0 0 0 0 127 0" result="hardAlpha"/>
<feOffset dx="4.63636" dy="6"/>
<feGaussianBlur stdDeviation="3.68182"/>
<feComposite in2="hardAlpha" operator="arithmetic" k2="-1" k3="1"/>
<feColorMatrix type="matrix" values="0 0 0 0 0.85098 0 0 0 0 0.937255 0 0 0 0 0.945098 0 0 0 1 0"/>
<feBlend mode="normal" in2="shape" result="effect1_innerShadow_384_1182"/>
</filter>
<filter id="filter1_i_384_1182" x="15.9655" y="31.2715" width="25.9798" height="15.0813" filterUnits="userSpaceOnUse" color-interpolation-filters="sRGB">
<feFlood flood-opacity="0" result="BackgroundImageFix"/>
<feBlend mode="normal" in="SourceGraphic" in2="BackgroundImageFix" result="shape"/>
<feColorMatrix in="SourceAlpha" type="matrix" values="0 0 0 0 0 0 0 0 0 0 0 0 0 0 0 0 0 0 127 0" result="hardAlpha"/>
<feOffset dx="-1.36364" dy="0.272727"/>
<feGaussianBlur stdDeviation="1.09091"/>
<feComposite in2="hardAlpha" operator="arithmetic" k2="-1" k3="1"/>
<feColorMatrix type="matrix" values="0 0 0 0 1 0 0 0 0 1 0 0 0 0 1 0 0 0 0.25 0"/>
<feBlend mode="normal" in2="shape" result="effect1_innerShadow_384_1182"/>
</filter>
<filter id="filter2_f_384_1182" x="17.4935" y="31.5345" width="24.2856" height="14.976" filterUnits="userSpaceOnUse" color-interpolation-filters="sRGB">
<feFlood flood-opacity="0" result="BackgroundImageFix"/>
<feBlend mode="normal" in="SourceGraphic" in2="BackgroundImageFix" result="shape"/>
<feGaussianBlur stdDeviation="0.664405" result="effect1_foregroundBlur_384_1182"/>
</filter>
<filter id="filter3_f_384_1182" x="19.7916" y="33.0739" width="19.4343" height="11.6403" filterUnits="userSpaceOnUse" color-interpolation-filters="sRGB">
<feFlood flood-opacity="0" result="BackgroundImageFix"/>
<feBlend mode="normal" in="SourceGraphic" in2="BackgroundImageFix" result="shape"/>
<feGaussianBlur stdDeviation="0.332203" result="effect1_foregroundBlur_384_1182"/>
</filter>
<filter id="filter4_i_384_1182" x="14.4313" y="12.8789" width="29.0404" height="17.3577" filterUnits="userSpaceOnUse" color-interpolation-filters="sRGB">
<feFlood flood-opacity="0" result="BackgroundImageFix"/>
<feBlend mode="normal" in="SourceGraphic" in2="BackgroundImageFix" result="shape"/>
<feColorMatrix in="SourceAlpha" type="matrix" values="0 0 0 0 0 0 0 0 0 0 0 0 0 0 0 0 0 0 127 0" result="hardAlpha"/>
<feOffset dx="-1.36364" dy="0.272727"/>
<feGaussianBlur stdDeviation="1.09091"/>
<feComposite in2="hardAlpha" operator="arithmetic" k2="-1" k3="1"/>
<feColorMatrix type="matrix" values="0 0 0 0 1 0 0 0 0 1 0 0 0 0 1 0 0 0 0.25 0"/>
<feBlend mode="normal" in2="shape" result="effect1_innerShadow_384_1182"/>
</filter>
<filter id="filter5_f_384_1182" x="16.0895" y="24.2829" width="26.8757" height="6.04072" filterUnits="userSpaceOnUse" color-interpolation-filters="sRGB">
<feFlood flood-opacity="0" result="BackgroundImageFix"/>
<feBlend mode="normal" in="SourceGraphic" in2="BackgroundImageFix" result="shape"/>
<feGaussianBlur stdDeviation="0.332203" result="effect1_foregroundBlur_384_1182"/>
</filter>
<filter id="filter6_f_384_1182" x="17.1912" y="24.7557" width="24.6732" height="5.09312" filterUnits="userSpaceOnUse" color-interpolation-filters="sRGB">
<feFlood flood-opacity="0" result="BackgroundImageFix"/>
<feBlend mode="normal" in="SourceGraphic" in2="BackgroundImageFix" result="shape"/>
<feGaussianBlur stdDeviation="0.166101" result="effect1_foregroundBlur_384_1182"/>
</filter>
<filter id="filter7_f_384_1182" x="28.9814" y="12.1445" width="10.3712" height="10.5997" filterUnits="userSpaceOnUse" color-interpolation-filters="sRGB">
<feFlood flood-opacity="0" result="BackgroundImageFix"/>
<feBlend mode="normal" in="SourceGraphic" in2="BackgroundImageFix" result="shape"/>
<feGaussianBlur stdDeviation="0.996608" result="effect1_foregroundBlur_384_1182"/>
</filter>
<filter id="filter8_f_384_1182" x="18.8737" y="15.6803" width="3.44307" height="5.57783" filterUnits="userSpaceOnUse" color-interpolation-filters="sRGB">
<feFlood flood-opacity="0" result="BackgroundImageFix"/>
<feBlend mode="normal" in="SourceGraphic" in2="BackgroundImageFix" result="shape"/>
<feGaussianBlur stdDeviation="0.332203" result="effect1_foregroundBlur_384_1182"/>
</filter>
<filter id="filter9_f_384_1182" x="19.408" y="39.5418" width="3.55015" height="5.40171" filterUnits="userSpaceOnUse" color-interpolation-filters="sRGB">
<feFlood flood-opacity="0" result="BackgroundImageFix"/>
<feBlend mode="normal" in="SourceGraphic" in2="BackgroundImageFix" result="shape"/>
<feGaussianBlur stdDeviation="0.166101" result="effect1_foregroundBlur_384_1182"/>
</filter>
<filter id="filter10_f_384_1182" x="17.1912" y="24.9412" width="3.77378" height="3.30015" filterUnits="userSpaceOnUse" color-interpolation-filters="sRGB">
<feFlood flood-opacity="0" result="BackgroundImageFix"/>
<feBlend mode="normal" in="SourceGraphic" in2="BackgroundImageFix" result="shape"/>
<feGaussianBlur stdDeviation="0.166101" result="effect1_foregroundBlur_384_1182"/>
</filter>
<linearGradient id="paint0_linear_384_1182" x1="22.5757" y1="43.9083" x2="34.6323" y2="33.9761" gradientUnits="userSpaceOnUse">
<stop stop-color="white" stop-opacity="0.72"/>
<stop offset="1" stop-color="white" stop-opacity="0.1"/>
</linearGradient>
<linearGradient id="paint1_linear_384_1182" x1="23.598" y1="42.9841" x2="33.6907" y2="34.6698" gradientUnits="userSpaceOnUse">
<stop stop-color="white" stop-opacity="0.48"/>
<stop offset="1" stop-color="white" stop-opacity="0.1"/>
</linearGradient>
<linearGradient id="paint2_linear_384_1182" x1="28.2106" y1="23.8082" x2="29.1297" y2="27.8057" gradientUnits="userSpaceOnUse">
<stop stop-color="white" stop-opacity="0.71"/>
<stop offset="1" stop-color="white" stop-opacity="0"/>
</linearGradient>
<linearGradient id="paint3_linear_384_1182" x1="28.2904" y1="24.0174" x2="34.9402" y2="28.9776" gradientUnits="userSpaceOnUse">
<stop stop-color="white" stop-opacity="0.26"/>
<stop offset="1" stop-color="white" stop-opacity="0"/>
</linearGradient>
<linearGradient id="paint4_linear_384_1182" x1="34.5512" y1="13.0113" x2="31.922" y2="20.3715" gradientUnits="userSpaceOnUse">
<stop stop-color="white"/>
<stop offset="1" stop-color="white" stop-opacity="0"/>
</linearGradient>
<linearGradient id="paint5_linear_384_1182" x1="20.6758" y1="15.9021" x2="18.273" y2="18.3085" gradientUnits="userSpaceOnUse">
<stop stop-color="white"/>
<stop offset="1" stop-color="white" stop-opacity="0"/>
</linearGradient>
<linearGradient id="paint6_linear_384_1182" x1="21.2905" y1="39.2901" x2="18.7547" y2="43.1535" gradientUnits="userSpaceOnUse">
<stop stop-color="white"/>
<stop offset="1" stop-color="white" stop-opacity="0"/>
</linearGradient>
<linearGradient id="paint7_linear_384_1182" x1="19.2287" y1="25.2974" x2="18.6274" y2="27.5595" gradientUnits="userSpaceOnUse">
<stop stop-color="white"/>
<stop offset="1" stop-color="white" stop-opacity="0"/>
</linearGradient>
<clipPath id="clip0_384_1182">
<rect width="27.6759" height="33.1848" fill="white" transform="translate(15.793 12.8877)"/>
</clipPath>
</defs>
</svg>
