<svg width="23" height="23" viewBox="0 0 23 23" fill="none" xmlns="http://www.w3.org/2000/svg">
<path fillRule="evenodd" clipRule="evenodd" d="M10.4188 10.5813C10.5085 10.5813 10.5813 10.5085 10.5813 10.4188V0.994518C10.5813 0.904825 10.6541 0.832031 10.7438 0.832031H12.5853C12.675 0.832031 12.7478 0.904825 12.7478 0.994518V10.4188C12.7478 10.5085 12.8206 10.5813 12.9103 10.5813H22.3345C22.4242 10.5813 22.497 10.6541 22.497 10.7438V12.5853C22.497 12.675 22.4242 12.7478 22.3345 12.7478H12.9103C12.8206 12.7478 12.7478 12.8206 12.7478 12.9103V22.3345C12.7478 22.4242 12.675 22.497 12.5853 22.497H10.7438C10.6541 22.497 10.5813 22.4242 10.5813 22.3345V12.9103C10.5813 12.8206 10.5085 12.7478 10.4188 12.7478H0.994518C0.904825 12.7478 0.832031 12.675 0.832031 12.5853V10.7438C0.832031 10.6541 0.904825 10.5813 0.994518 10.5813H10.4188Z" fill="url(#paint0_linear_384_1037)"/>
<defs>
<linearGradient id="paint0_linear_384_1037" x1="0.832031" y1="11.6638" x2="22.497" y2="11.6638" gradientUnits="userSpaceOnUse">
<stop stop-color="#07D7FF"/>
<stop offset="0.74" stop-color="#4668FD"/>
</linearGradient>
</defs>
</svg>
