<svg width="60" height="60" viewBox="0 0 60 60" fill="none" xmlns="http://www.w3.org/2000/svg">
<g filter="url(#filter0_i_384_1166)">
<rect width="60" height="60" rx="17.7273" fill="#EEF9FF"/>
</g>
<g filter="url(#filter1_d_384_1166)">
<g filter="url(#filter2_i_384_1166)">
<path d="M36.4007 39.1728C35.16 38.911 34.1675 39.3986 33.2643 40.1914C32.9752 40.4457 32.6465 40.6566 32.3276 40.8737C31.2098 41.6318 29.8748 41.6206 28.7669 40.8378C28.1727 40.4184 27.6119 39.9482 26.9928 39.571C26.6541 39.3651 26.2348 39.2286 25.839 39.1939C25.148 39.1343 24.4482 39.1852 23.751 39.1753C22.2225 39.1529 21.1791 38.3887 20.6953 36.9409C20.4744 36.2821 20.3032 35.6034 20.0365 34.9633C19.8901 34.6122 19.6382 34.2673 19.3479 34.0204C18.8082 33.5588 18.2028 33.178 17.6333 32.7512C16.4423 31.8604 16.0354 30.5924 16.4808 29.1781C16.6904 28.5156 16.8951 27.8506 17.1284 27.1955C17.276 26.7812 17.281 26.3928 17.1309 25.9772C16.8964 25.3234 16.6917 24.6584 16.482 23.9959C16.0279 22.5617 16.4485 21.2789 17.6606 20.3918C18.2102 19.9898 18.7908 19.6251 19.3008 19.1772C19.6097 18.9055 19.8839 18.542 20.0451 18.1648C20.3231 17.5135 20.493 16.8175 20.7201 16.1438C21.1754 14.7977 22.2709 14 23.6939 13.9789C24.4209 13.9677 25.1517 14.0161 25.875 13.9603C26.2534 13.9305 26.6578 13.7965 26.9816 13.598C27.5858 13.227 28.1379 12.7705 28.7173 12.3586C29.9059 11.5149 31.2371 11.5174 32.4306 12.3648C33.0112 12.7767 33.5621 13.2332 34.1675 13.6029C34.4913 13.8002 34.897 13.9305 35.2754 13.9603C35.9826 14.0161 36.6984 13.9702 37.4093 13.9789C38.8646 13.9962 39.9551 14.784 40.4204 16.1562C40.6487 16.8286 40.8211 17.5246 41.0953 18.1772C41.2492 18.542 41.5097 18.8968 41.8099 19.1561C42.3471 19.6189 42.9526 20.0022 43.5233 20.4265C44.6684 21.2764 45.0927 22.5543 44.6758 23.919C44.4637 24.6137 44.192 25.2911 44.022 25.9958C43.9327 26.3643 43.9302 26.7898 44.0183 27.1583C44.1833 27.8469 44.4488 28.5119 44.6609 29.1905C45.1014 30.6011 44.682 31.879 43.4935 32.7599C42.8967 33.2015 42.2764 33.6134 41.702 34.0824C41.4638 34.2759 41.2566 34.56 41.1449 34.8454C40.8708 35.5501 40.6648 36.2808 40.4229 36.9979C39.9651 38.3502 38.9279 39.1257 37.5111 39.1716C37.1438 39.1827 36.7729 39.1728 36.4007 39.1728ZM25.3601 32.4001C25.3465 33.2723 26.0549 33.6928 26.7856 33.3194C27.9407 32.7288 29.0908 32.1259 30.2322 31.508C30.4778 31.3753 30.6602 31.3691 30.9083 31.5043C32.0212 32.1098 33.1477 32.6891 34.268 33.2809C34.6129 33.4633 34.9553 33.5576 35.3238 33.3479C35.7158 33.1234 35.8486 32.7338 35.7444 32.1284C35.531 30.8952 35.3325 29.6582 35.1005 28.4287C35.0496 28.157 35.1265 28.0007 35.3064 27.827C36.2419 26.9251 37.1686 26.0144 38.0979 25.1063C38.382 24.8284 38.5371 24.5095 38.4019 24.1038C38.2641 23.6895 37.9639 23.4972 37.5421 23.4376C36.2717 23.2589 35.0049 23.0604 33.7333 22.893C33.433 22.8533 33.278 22.7267 33.1502 22.46C32.6105 21.331 32.0435 20.2144 31.4976 19.0891C31.3004 18.6834 31.0386 18.3943 30.5485 18.4043C30.0808 18.413 29.8351 18.702 29.6466 19.0879C29.0994 20.2131 28.5337 21.3297 27.9928 22.4587C27.8662 22.7242 27.7111 22.8533 27.4097 22.893C26.1839 23.0542 24.9631 23.254 23.7386 23.4177C23.2758 23.4798 22.8987 23.6187 22.7398 24.1026C22.5773 24.5989 22.849 24.9227 23.1741 25.2365C23.9755 26.0107 24.746 26.8171 25.5772 27.5578C26.0003 27.935 26.0958 28.2948 25.9804 28.8419C25.7261 30.0478 25.5512 31.2736 25.3601 32.4001Z" fill="#0080D0"/>
</g>
<g filter="url(#filter3_f_384_1166)">
<path d="M32.7515 38.6542L32.7519 38.6539C33.6218 37.8977 34.6465 37.3734 35.9399 37.6278C36.0425 37.628 36.1423 37.6288 36.2402 37.6297C36.4668 37.6316 36.6838 37.6335 36.9048 37.6268M32.7515 38.6542L36.9177 38.0357M32.7515 38.6542C32.5489 38.8308 32.3238 38.9813 32.0749 39.1478C32.0282 39.179 31.9806 39.2108 31.9322 39.2435C31.0467 39.838 30.0056 39.8295 29.1275 39.215L29.1273 39.2148M32.7515 38.6542L29.1273 39.2148M36.9048 37.6268C36.905 37.6268 36.9052 37.6268 36.9054 37.6268L36.9177 38.0357M36.9048 37.6268C36.9047 37.6268 36.9046 37.6268 36.9045 37.6268L36.9177 38.0357M36.9048 37.6268C38.0347 37.5905 38.8375 36.996 39.2027 35.9282M36.9177 38.0357C38.2179 37.994 39.1698 37.2892 39.5899 36.0601M39.2027 35.9282L39.5899 36.0601M39.2027 35.9282C39.2743 35.7179 39.3447 35.4988 39.4164 35.2757C39.5571 34.8378 39.7026 34.3847 39.8718 33.9541L39.8721 33.9533C40.0006 33.6282 40.2332 33.3123 40.5066 33.0921M39.2027 35.9282C39.2027 35.9281 39.2028 35.9279 39.2028 35.9278L39.5899 36.0601M39.5899 36.0601L40.5066 33.0921M40.5066 33.0921L40.7638 33.4102M40.5066 33.0921L40.2526 34.1037C40.355 33.8443 40.5452 33.5861 40.7638 33.4102M40.5066 33.0921C40.5068 33.0919 40.5071 33.0917 40.5073 33.0915L40.7638 33.4102M40.5066 33.0921C40.8633 32.8036 41.2489 32.5311 41.6213 32.2678C41.8079 32.1359 41.9911 32.0064 42.1658 31.8783C42.6524 31.5212 42.964 31.0974 43.1158 30.6382C43.2675 30.1792 43.2688 29.657 43.0892 29.0871C43.0285 28.8948 42.9587 28.6925 42.8868 28.4843C42.7448 28.0727 42.5948 27.6383 42.4919 27.2131L42.4919 27.2128C42.3954 26.8132 42.3984 26.3601 42.4956 25.963C42.5972 25.5459 42.7448 25.1153 42.8847 24.707C42.9626 24.4797 43.0381 24.2594 43.102 24.0521L43.1021 24.052C43.4327 22.9801 43.1053 21.9985 42.193 21.328L42.1927 21.3278C42.0329 21.2101 41.861 21.09 41.6843 20.9666C41.321 20.7129 40.9375 20.4451 40.5973 20.1549L40.5969 20.1545C40.2748 19.8789 39.9972 19.5053 39.8306 19.1142L39.8304 19.1137C39.6607 18.7137 39.5247 18.275 39.3965 17.8613C39.3304 17.6479 39.2663 17.4411 39.2007 17.2497L39.2006 17.2495C38.8308 16.1693 37.9853 15.5609 36.8195 15.5471L36.8194 15.5471C36.6147 15.5446 36.3977 15.5476 36.1745 15.5508C35.736 15.5569 35.2736 15.5633 34.8342 15.529L42.4079 32.2081C42.2209 32.3452 42.0313 32.4792 41.8417 32.6131C41.4763 32.8713 41.1109 33.1295 40.7638 33.4102M29.1273 39.2148C28.9538 39.0936 28.7728 38.9591 28.5863 38.8205C28.2311 38.5565 27.8561 38.2778 27.4761 38.0485L27.4758 38.0484M29.1273 39.2148L27.4758 38.0484M27.4758 38.0484C27.1108 37.8285 26.6657 37.6854 26.2413 37.6485L26.2407 37.6484M27.4758 38.0484L26.2407 37.6484M26.2407 37.6484C25.8135 37.6119 25.36 37.6192 24.9322 37.6259C24.7107 37.6295 24.4961 37.6329 24.2956 37.6301C23.6615 37.6209 23.1576 37.4605 22.768 37.1783C22.3786 36.8962 22.073 36.4702 21.8729 35.8774L21.8728 35.8771M26.2407 37.6484L21.8728 35.8771M21.8728 35.8771C21.8109 35.6942 21.7503 35.4986 21.688 35.2973C21.5608 34.887 21.4263 34.4526 21.2578 34.0521L21.2578 34.0521M21.8728 35.8771L21.2578 34.0521M21.2578 34.0521C21.0983 33.6733 20.8285 33.3074 20.5132 33.0416C20.1834 32.7623 19.81 32.5014 19.4561 32.2542C19.2685 32.1231 19.0863 31.9959 18.9191 31.8717L18.9188 31.8715M21.2578 34.0521L18.9188 31.8715M18.9188 31.8715C18.4302 31.5096 18.1211 31.086 17.9723 30.6283M18.9188 31.8715L17.9723 30.6283M18.0084 24.118L18.0084 24.118C18.037 24.2075 18.0654 24.2968 18.0937 24.3857C18.2574 24.8999 18.4183 25.4055 18.5988 25.9041L18.2142 26.0434L18.5985 25.9032C18.7704 26.3746 18.7634 26.8262 18.5969 27.2891L18.0084 24.118ZM18.0084 24.118C17.8225 23.5365 17.8219 23.0084 17.9745 22.5465C18.1272 22.0845 18.4431 21.6585 18.9403 21.2981C19.0801 21.1968 19.2291 21.0937 19.382 20.9879C19.7457 20.7362 20.1323 20.4687 20.474 20.1715L20.4743 20.1713M18.0084 24.118L20.4743 20.1713M21.8952 17.238C22.2565 16.1802 23.1078 15.5637 24.2433 15.5471L24.2435 15.5471C24.4602 15.5438 24.6914 15.5469 24.9295 15.5502C25.3693 15.5562 25.8323 15.5625 26.2701 15.529L26.2707 15.529C26.6834 15.4968 27.1162 15.3544 27.4668 15.1415L27.4671 15.1414C27.8463 14.9108 28.2187 14.6346 28.5722 14.3724C28.7475 14.2424 28.9181 14.1159 29.0827 14C30.0314 13.3331 31.0648 13.3341 32.0199 14.0056L32.02 14.0057C32.1849 14.1216 32.3559 14.2483 32.5316 14.3786C32.8851 14.6406 33.2576 14.9167 33.6375 15.1464L33.6379 15.1466C33.9903 15.3593 34.4241 15.497 34.8341 15.529L21.8952 17.238ZM21.8952 17.238C21.8318 17.4242 21.7701 17.6249 21.7063 17.8319M21.8952 17.238L21.7063 17.8319M20.4743 20.1713C20.7991 19.8883 21.0896 19.5093 21.2643 19.1048L21.2644 19.1045M20.4743 20.1713L21.2644 19.1045M21.2644 19.1045C21.4398 18.6975 21.5771 18.2514 21.7063 17.8319M21.2644 19.1045L21.7063 17.8319M25.3578 31.8431L25.3632 31.8121C25.4112 31.5316 25.4585 31.2415 25.5069 30.9451C25.6326 30.1746 25.7654 29.361 25.9356 28.5618C25.9804 28.3514 25.9743 28.2216 25.9448 28.1254C25.9162 28.0321 25.8517 27.9251 25.6949 27.7866C25.1784 27.3309 24.6805 26.8417 24.1918 26.3615C23.9518 26.1258 23.7141 25.8922 23.4775 25.6658L25.3578 31.8431ZM25.3578 31.8431L25.3573 31.8746M25.3578 31.8431L25.3573 31.8746M25.3573 31.8746C25.3493 32.3865 25.5593 32.829 25.9483 33.0708C26.3353 33.3115 26.8201 33.304 27.2594 33.0817L27.2594 33.0816L25.3573 31.8746ZM30.6641 31.4271L30.6638 31.427C30.5893 31.3867 30.5596 31.3863 30.5517 31.3864C30.542 31.3865 30.5099 31.3886 30.4309 31.4309C30.4308 31.4309 30.4307 31.431 30.4306 31.431L30.2376 31.0703L30.6641 31.4271ZM30.6641 31.4271C31.361 31.8026 32.0657 32.1682 32.7672 32.532C33.0965 32.7028 33.4251 32.8733 33.7518 33.0442C34.1119 33.2328 34.591 33.3922 35.1112 33.099L35.1122 33.0984M30.6641 31.4271L35.1122 33.0984M35.1122 33.0984C35.3708 32.9518 35.5617 32.7371 35.6606 32.4524C35.7551 32.1802 35.7539 31.8776 35.6994 31.5641L35.6993 31.5637M35.1122 33.0984L35.6993 31.5637M35.6993 31.5637C35.6394 31.2211 35.5806 30.8766 35.5216 30.5313M35.6993 31.5637L35.5216 30.5313M37.7409 25.5456L37.7407 25.5457C37.5516 25.7287 37.3625 25.912 37.1733 26.0954C36.5102 26.7379 35.8459 27.3817 35.1769 28.0205M37.7409 25.5456L35.1769 28.0205M37.7409 25.5456C37.898 25.3933 38.0451 25.2059 38.126 24.9752C38.2101 24.7355 38.2127 24.4773 38.123 24.2105C38.0358 23.9506 37.8884 23.7395 37.6803 23.587C37.477 23.438 37.2411 23.3633 37.0028 23.3299L37.0026 23.3299M37.7409 25.5456L37.0026 23.3299M35.1769 28.0205C35.1152 28.0796 35.105 28.1044 35.1033 28.1089C35.1026 28.1108 35.1011 28.115 35.1006 28.1254C35.1 28.1371 35.1005 28.159 35.1074 28.1956M35.1769 28.0205L35.1074 28.1956M37.0026 23.3299C36.5521 23.2672 36.0985 23.2012 35.6435 23.135C34.9314 23.0314 34.2159 22.9273 33.5036 22.8344M37.0026 23.3299L33.4507 23.2401M31.7662 19.6025L31.7663 19.6028C31.9789 20.0366 32.198 20.4753 32.418 20.9156C32.7096 21.4992 33.0027 22.0859 33.284 22.6687M31.7662 19.6025L33.4507 23.2401M31.7662 19.6025C31.6636 19.3935 31.5257 19.1745 31.3191 19.0099C31.1017 18.8367 30.8351 18.745 30.5201 18.7513M31.7662 19.6025L29.333 19.6013M33.284 22.6687L32.9156 22.8465L33.2838 22.6684C33.2839 22.6685 33.2839 22.6686 33.284 22.6687ZM33.284 22.6687C33.3259 22.7554 33.355 22.7827 33.3694 22.7935C33.3819 22.8029 33.4132 22.8226 33.5036 22.8344M33.5036 22.8344L33.4507 23.2401M33.5036 22.8344C33.5037 22.8344 33.5037 22.8344 33.5038 22.8344L33.4507 23.2401M29.333 19.6013L29.3333 19.6006C29.4306 19.4035 29.5606 19.1923 29.755 19.0291C29.9597 18.8572 30.2139 18.757 30.5201 18.7513M29.333 19.6013C29.1226 20.0298 28.9066 20.4621 28.6899 20.8959C28.3954 21.4853 28.0995 22.0776 27.8142 22.6672L27.8138 22.668L29.333 19.6013ZM30.5201 18.7513C30.5202 18.7513 30.5203 18.7513 30.5204 18.7513L30.5279 19.1603L30.5197 18.7513C30.5199 18.7513 30.52 18.7513 30.5201 18.7513ZM24.2244 23.3115L24.2245 23.3115C24.7637 23.2401 25.3025 23.161 25.8446 23.0815L25.903 23.073C26.4638 22.9907 27.0282 22.9082 27.5944 22.8344C27.5944 22.8344 27.5944 22.8344 27.5945 22.8344L24.2244 23.3115ZM24.2244 23.3115C23.9944 23.3421 23.7361 23.3966 23.5067 23.5326C23.2622 23.6776 23.0766 23.8993 22.9734 24.2108L22.9733 24.2111M24.2244 23.3115L22.9733 24.2111M22.9733 24.2111C22.864 24.5415 22.8993 24.8383 23.0256 25.0967M22.9733 24.2111L23.0256 25.0967M17.9723 30.6283C17.8235 30.1709 17.8252 29.6498 18.0074 29.0766M17.9723 30.6283L18.0074 29.0766M18.0074 29.0766L17.6176 28.9526M18.0074 29.0766L17.6176 28.9526M17.6176 28.9526L18.0072 29.0772C18.0371 28.9837 18.0667 28.8905 18.0963 28.7976M17.6176 28.9526L18.0963 28.7976M18.0963 28.7976C18.2587 28.2875 18.4185 27.7853 18.5968 27.2892L18.0963 28.7976ZM35.5216 30.5313C35.3888 29.7539 35.2553 28.9719 35.1074 28.1956M35.5216 30.5313L35.1074 28.1956M23.0256 25.0967C23.1413 25.3333 23.3263 25.5213 23.4774 25.6658L23.0256 25.0967ZM24.2373 15.138C24.4799 15.1343 24.723 15.1378 24.9661 15.1413C25.3913 15.1473 25.8165 15.1534 26.2389 15.1211L24.2373 15.138Z" stroke="url(#paint0_linear_384_1166)" stroke-width="0.818182"/>
</g>
<path d="M34.3389 41.5314C34.8178 41.0413 35.3239 40.7994 36.0088 40.8304C36.8388 40.8677 37.6924 40.8714 38.5025 40.7151C40.1575 40.3962 41.2865 39.3702 41.9081 37.8057C42.1128 37.2896 42.2704 36.7537 42.4428 36.2251C42.7493 35.2872 42.748 35.2872 43.6611 34.75C43.7021 34.7773 43.7592 34.8021 43.8013 34.843C45.2045 36.2425 46.6114 37.637 48.0034 39.0476C48.563 39.6146 48.398 40.3416 47.6498 40.6431C46.331 41.1741 45.0097 41.6989 43.6785 42.1976C43.3547 42.3192 43.1909 42.5078 43.0731 42.8192C42.5743 44.1343 42.0582 45.4432 41.5359 46.7483C41.2344 47.5027 40.5062 47.69 39.9441 47.1342C38.0732 45.2844 36.2209 43.416 34.3389 41.5314Z" fill="#0080D0"/>
<path d="M26.8156 41.5442C26.1928 42.1608 25.5873 42.7576 24.9856 43.358C23.7474 44.5937 22.5155 45.8369 21.2723 47.0663C20.6408 47.6904 19.92 47.5341 19.5925 46.7103C19.0677 45.389 18.5652 44.0578 18.0218 42.7439C17.935 42.5342 17.7166 42.3159 17.5069 42.229C16.2216 41.6993 14.9189 41.2105 13.6249 40.7018C12.687 40.3333 12.5456 39.6361 13.2614 38.9177C14.6485 37.5257 16.038 36.1349 17.4573 34.7119C17.9499 35.0667 18.4908 35.3 18.6384 35.9923C18.7699 36.6076 18.9933 37.2106 19.2327 37.7949C19.9945 39.6609 21.3939 40.6832 23.4075 40.8283C23.977 40.8693 24.5563 40.8891 25.1246 40.8345C25.8069 40.77 26.3205 41.0231 26.8156 41.5442Z" fill="#0080D0"/>
<path d="M33.6305 30.8395C32.8005 30.4028 32.0412 30.0269 31.3055 29.61C30.7944 29.3197 30.3366 29.3234 29.8254 29.62C29.0959 30.0418 28.3366 30.4102 27.5128 30.842C27.6766 29.883 27.8093 29.0145 27.9756 28.1535C28.0736 27.6461 27.9297 27.2664 27.5649 26.9054C26.9508 26.2987 26.3764 25.6511 25.7734 25.0097C26.297 24.9303 26.8801 24.8372 27.4644 24.7529C29.246 24.4948 28.9594 24.6561 29.7274 23.1326C29.9966 22.5979 30.2584 22.0607 30.571 21.4316C30.9705 22.2381 31.3613 22.949 31.6802 23.6921C31.9494 24.3211 32.37 24.6152 33.0511 24.671C33.8488 24.7367 34.6379 24.8943 35.391 25.006C34.8054 25.6263 34.2508 26.2702 33.6342 26.8471C33.1839 27.2689 33.0623 27.718 33.1839 28.3036C33.3513 29.1125 33.4742 29.9338 33.6305 30.8395Z" fill="#0080D0"/>
<path d="M32.7929 29.7248C32.181 29.3957 31.6212 29.1124 31.0787 28.7983C30.7019 28.5796 30.3643 28.5824 29.9875 28.8058C29.4496 29.1237 28.8898 29.4013 28.2824 29.7267C28.4032 29.004 28.5011 28.3496 28.6236 27.7008C28.6959 27.3185 28.5898 27.0324 28.3209 26.7603C27.8681 26.3032 27.4446 25.8152 27 25.3319C27.386 25.272 27.8159 25.2019 28.2468 25.1384C29.5603 24.9439 29.349 25.0654 29.9152 23.9174C30.1137 23.5145 30.3067 23.1097 30.5372 22.6357C30.8318 23.2434 31.1199 23.7791 31.355 24.3391C31.5535 24.813 31.8636 25.0346 32.3657 25.0767C32.9539 25.1262 33.5357 25.2449 34.0909 25.3291C33.6592 25.7965 33.2503 26.2817 32.7957 26.7164C32.4636 27.0343 32.374 27.3727 32.4636 27.8139C32.5871 28.4235 32.6777 29.0423 32.7929 29.7248Z" fill="url(#paint1_linear_384_1166)"/>
<g filter="url(#filter4_f_384_1166)">
<path d="M32.2745 28.9072C31.8037 28.6541 31.3731 28.4362 30.9558 28.1946C30.666 28.0263 30.4063 28.0284 30.1164 28.2003C29.7027 28.4448 29.2721 28.6584 28.8048 28.9086C28.8977 28.3528 28.973 27.8494 29.0673 27.3503C29.1229 27.0562 29.0413 26.8361 28.8344 26.6269C28.4861 26.2752 28.1603 25.8998 27.8184 25.5281C28.1153 25.482 28.446 25.4281 28.7774 25.3792C29.7878 25.2296 29.6253 25.3231 30.0608 24.44C30.2135 24.1301 30.362 23.8187 30.5393 23.4541C30.7659 23.9215 30.9875 24.3336 31.1683 24.7643C31.321 25.1289 31.5596 25.2994 31.9459 25.3317C32.3983 25.3698 32.8458 25.4612 33.2729 25.5259C32.9408 25.8855 32.6263 26.2587 32.2766 26.5931C32.0211 26.8376 31.9522 27.0979 32.0211 27.4373C32.1161 27.9062 32.1858 28.3822 32.2745 28.9072Z" fill="url(#paint2_linear_384_1166)"/>
<path d="M29.0673 27.3503C29.1229 27.0562 29.0413 26.8361 28.8344 26.6269C28.5929 26.383 28.3622 26.1277 28.1294 25.8702C28.0628 25.7965 27.9961 25.7227 27.9289 25.6488L32.2766 26.5931C32.0211 26.8376 31.9522 27.0979 32.0211 27.4373C32.0882 27.7683 32.1426 28.1028 32.2 28.4556C32.2151 28.5482 32.2303 28.642 32.2461 28.7373C32.1951 28.71 32.1446 28.6832 32.0946 28.6567M29.0673 27.3503C29.0028 27.6918 28.9472 28.0353 28.8887 28.3962C28.8705 28.5087 28.852 28.6228 28.8329 28.7391C28.8839 28.712 28.9343 28.6854 28.9842 28.6592M29.0673 27.3503L29.2013 27.3756M29.0673 27.3503L29.2013 27.3756L29.2013 27.3756M28.9842 28.6592C28.9751 28.7149 28.9659 28.7711 28.9565 28.828C29.0467 28.7802 29.1356 28.7336 29.2234 28.6876C29.5336 28.525 29.8291 28.3701 30.1164 28.2003M28.9842 28.6592C29.0447 28.6273 29.1045 28.596 29.1635 28.565C29.4722 28.4032 29.7628 28.2509 30.047 28.0829M28.9842 28.6592C28.9976 28.577 29.0107 28.4959 29.0237 28.4159C29.082 28.0559 29.1371 27.7153 29.2013 27.3756M30.1164 28.2003C30.4063 28.0284 30.666 28.0263 30.9558 28.1946M30.1164 28.2003L30.0469 28.083C30.0469 28.083 30.047 28.0829 30.047 28.0829M30.1164 28.2003L30.047 28.0829M30.9558 28.1946C31.2424 28.3605 31.5353 28.5153 31.8431 28.6779C31.9349 28.7264 32.0279 28.7756 32.1226 28.826C32.1131 28.7689 32.1038 28.7125 32.0946 28.6567M30.9558 28.1946L31.0243 28.0766M30.9558 28.1946L31.0242 28.0766C31.0242 28.0766 31.0243 28.0766 31.0243 28.0766M32.0946 28.6567C32.0846 28.5954 32.0747 28.5347 32.065 28.4747C32.0078 28.1232 31.954 27.7927 31.8875 27.4645M32.0946 28.6567C32.0303 28.6226 31.9668 28.589 31.904 28.5559C31.5975 28.3939 31.3085 28.2412 31.0243 28.0766M31.8875 27.4645C31.8499 27.2794 31.848 27.106 31.8964 26.9412C31.945 26.7758 32.041 26.6298 32.1823 26.4946L32.1823 26.4945C32.4236 26.2638 32.646 26.0164 32.8732 25.7636C32.9158 25.7161 32.9587 25.6685 33.0018 25.6207C32.9527 25.6126 32.9035 25.6043 32.8543 25.596C32.5503 25.545 32.2452 25.4938 31.9344 25.4676C31.7236 25.4499 31.5416 25.3935 31.3894 25.283C31.2372 25.1724 31.1259 25.0159 31.0426 24.8171C30.92 24.525 30.7795 24.2441 30.6293 23.9436C30.5999 23.8849 30.5702 23.8254 30.5402 23.7649C30.515 23.8169 30.4904 23.868 30.4661 23.9183C30.3684 24.1205 30.2764 24.311 30.1832 24.5003L30.1831 24.5003C30.1369 24.5941 30.0962 24.6793 30.0599 24.7556C30.0136 24.8527 29.9743 24.9352 29.9394 25.0016C29.8754 25.1236 29.8119 25.2218 29.7168 25.2935C29.6215 25.3655 29.5085 25.4002 29.3691 25.4274C29.2741 25.4459 29.1557 25.4627 29.0102 25.4834C28.9449 25.4927 28.874 25.5027 28.7974 25.5141L28.7973 25.5141C28.5772 25.5466 28.358 25.5812 28.148 25.6143C28.1286 25.6174 28.1093 25.6205 28.0901 25.6235C28.138 25.6763 28.1856 25.729 28.233 25.7814C28.4647 26.0378 28.692 26.2893 28.9313 26.5309L28.9314 26.531C29.0453 26.6462 29.131 26.7709 29.1786 26.9136C29.2265 27.0571 29.2327 27.2097 29.2013 27.3756M31.8875 27.4645L32.0209 27.4374L31.8875 27.4644C31.8875 27.4644 31.8875 27.4644 31.8875 27.4645ZM31.0243 28.0766C30.8635 27.9833 30.7024 27.9323 30.5352 27.9335C30.3681 27.9347 30.2073 27.9879 30.047 28.0829" stroke="url(#paint3_linear_384_1166)" stroke-width="0.272727"/>
</g>
</g>
<g filter="url(#filter5_f_384_1166)">
<path d="M22.1586 15.6675L22.0536 15.4158L22.1586 15.6675ZM24.545 15.9402C24.6956 15.9402 24.8177 15.8181 24.8177 15.6675C24.8177 15.5169 24.6956 15.3948 24.545 15.3947L24.545 15.9402ZM20.7208 18.602C20.7693 18.375 20.8043 18.1013 20.8454 17.8612C20.8887 17.6085 20.943 17.3595 21.0351 17.1217C21.2139 16.66 21.5418 16.2205 22.2637 15.9192L22.0536 15.4158C21.1846 15.7785 20.7549 16.335 20.5265 16.9247C20.415 17.2126 20.3533 17.5031 20.3078 17.7692C20.2601 18.0478 20.2336 18.2721 20.1874 18.4879L20.7208 18.602ZM22.2637 15.9192C22.5293 15.8083 22.8418 15.8019 23.2353 15.8358C23.609 15.868 24.0757 15.9402 24.545 15.9402L24.545 15.3947C24.1052 15.3947 23.709 15.3291 23.282 15.2923C22.8748 15.2573 22.4486 15.2509 22.0536 15.4158L22.2637 15.9192Z" fill="white"/>
</g>
<path d="M20.7266 18.5452C20.772 17.3179 21.6266 15.0543 24.6811 15.8179" stroke="url(#paint4_linear_384_1166)" stroke-width="0.818182" stroke-linecap="round"/>
<defs>
<filter id="filter0_i_384_1166" x="0" y="0" width="64.6364" height="66" filterUnits="userSpaceOnUse" color-interpolation-filters="sRGB">
<feFlood flood-opacity="0" result="BackgroundImageFix"/>
<feBlend mode="normal" in="SourceGraphic" in2="BackgroundImageFix" result="shape"/>
<feColorMatrix in="SourceAlpha" type="matrix" values="0 0 0 0 0 0 0 0 0 0 0 0 0 0 0 0 0 0 127 0" result="hardAlpha"/>
<feOffset dx="4.63636" dy="6"/>
<feGaussianBlur stdDeviation="3.68182"/>
<feComposite in2="hardAlpha" operator="arithmetic" k2="-1" k3="1"/>
<feColorMatrix type="matrix" values="0 0 0 0 0.85098 0 0 0 0 0.937255 0 0 0 0 0.945098 0 0 0 1 0"/>
<feBlend mode="normal" in2="shape" result="effect1_innerShadow_384_1166"/>
</filter>
<filter id="filter1_d_384_1166" x="10.6268" y="10.3639" width="47.5273" height="47.7285" filterUnits="userSpaceOnUse" color-interpolation-filters="sRGB">
<feFlood flood-opacity="0" result="BackgroundImageFix"/>
<feColorMatrix in="SourceAlpha" type="matrix" values="0 0 0 0 0 0 0 0 0 0 0 0 0 0 0 0 0 0 127 0" result="hardAlpha"/>
<feOffset dx="3.81818" dy="4.63636"/>
<feGaussianBlur stdDeviation="3"/>
<feComposite in2="hardAlpha" operator="out"/>
<feColorMatrix type="matrix" values="0 0 0 0 0.760069 0 0 0 0 0.809521 0 0 0 0 0.916667 0 0 0 1 0"/>
<feBlend mode="normal" in2="BackgroundImageFix" result="effect1_dropShadow_384_1166"/>
<feBlend mode="normal" in="SourceGraphic" in2="effect1_dropShadow_384_1166" result="shape"/>
</filter>
<filter id="filter2_i_384_1166" x="15.2128" y="11.7275" width="29.6202" height="29.7061" filterUnits="userSpaceOnUse" color-interpolation-filters="sRGB">
<feFlood flood-opacity="0" result="BackgroundImageFix"/>
<feBlend mode="normal" in="SourceGraphic" in2="BackgroundImageFix" result="shape"/>
<feColorMatrix in="SourceAlpha" type="matrix" values="0 0 0 0 0 0 0 0 0 0 0 0 0 0 0 0 0 0 127 0" result="hardAlpha"/>
<feOffset dx="-1.09091"/>
<feGaussianBlur stdDeviation="0.681818"/>
<feComposite in2="hardAlpha" operator="arithmetic" k2="-1" k3="1"/>
<feColorMatrix type="matrix" values="0 0 0 0 1 0 0 0 0 1 0 0 0 0 1 0 0 0 0.64 0"/>
<feBlend mode="normal" in2="shape" result="effect1_innerShadow_384_1166"/>
</filter>
<filter id="filter3_f_384_1166" x="15.2733" y="10.91" width="30.5453" height="31.3636" filterUnits="userSpaceOnUse" color-interpolation-filters="sRGB">
<feFlood flood-opacity="0" result="BackgroundImageFix"/>
<feBlend mode="normal" in="SourceGraphic" in2="BackgroundImageFix" result="shape"/>
<feGaussianBlur stdDeviation="1.09091" result="effect1_foregroundBlur_384_1166"/>
</filter>
<filter id="filter4_f_384_1166" x="27.2729" y="22.9086" width="6.54501" height="6.54501" filterUnits="userSpaceOnUse" color-interpolation-filters="sRGB">
<feFlood flood-opacity="0" result="BackgroundImageFix"/>
<feBlend mode="normal" in="SourceGraphic" in2="BackgroundImageFix" result="shape"/>
<feGaussianBlur stdDeviation="0.272727" result="effect1_foregroundBlur_384_1166"/>
</filter>
<filter id="filter5_f_384_1166" x="18.8239" y="13.9088" width="7.35716" height="6.05637" filterUnits="userSpaceOnUse" color-interpolation-filters="sRGB">
<feFlood flood-opacity="0" result="BackgroundImageFix"/>
<feBlend mode="normal" in="SourceGraphic" in2="BackgroundImageFix" result="shape"/>
<feGaussianBlur stdDeviation="0.681818" result="effect1_foregroundBlur_384_1166"/>
</filter>
<linearGradient id="paint0_linear_384_1166" x1="23.1824" y1="15.1373" x2="31.5005" y2="34.0918" gradientUnits="userSpaceOnUse">
<stop stop-color="white"/>
<stop offset="1" stop-color="white" stop-opacity="0"/>
</linearGradient>
<linearGradient id="paint1_linear_384_1166" x1="28.1723" y1="24.1513" x2="33.5234" y2="29.925" gradientUnits="userSpaceOnUse">
<stop offset="0.123743" stop-color="white" stop-opacity="0.22"/>
<stop offset="0.549182" stop-color="white" stop-opacity="0.04"/>
<stop offset="0.880208" stop-color="white" stop-opacity="0"/>
</linearGradient>
<linearGradient id="paint2_linear_384_1166" x1="28.7201" y1="24.6199" x2="32.8364" y2="29.0612" gradientUnits="userSpaceOnUse">
<stop offset="0.123743" stop-color="white" stop-opacity="0.22"/>
<stop offset="0.549182" stop-color="white" stop-opacity="0.04"/>
<stop offset="0.880208" stop-color="white" stop-opacity="0"/>
</linearGradient>
<linearGradient id="paint3_linear_384_1166" x1="29.7275" y1="24.9541" x2="31.0911" y2="26.7268" gradientUnits="userSpaceOnUse">
<stop stop-color="white"/>
<stop offset="1" stop-color="white" stop-opacity="0"/>
</linearGradient>
<linearGradient id="paint4_linear_384_1166" x1="24.4084" y1="15.4089" x2="21.495" y2="18.2409" gradientUnits="userSpaceOnUse">
<stop stop-color="white" stop-opacity="0.24"/>
<stop offset="1" stop-color="white" stop-opacity="0"/>
</linearGradient>
</defs>
</svg>
