<svg width="18" height="17" viewBox="0 0 18 17" fill="none" xmlns="http://www.w3.org/2000/svg">
<path d="M17.6601 0.709211C17.3531 0.45481 16.8708 0.41841 16.3722 0.614011H16.3713C15.8469 0.819611 1.52653 6.82123 0.943561 7.06643C0.837529 7.10243 -0.088506 7.44003 0.00688135 8.19203C0.092034 8.87004 0.836301 9.15084 0.927185 9.18324L4.56787 10.4012C4.80941 11.1868 5.69983 14.0853 5.89674 14.7045C6.01956 15.0905 6.21975 15.5977 6.5706 15.7021C6.87846 15.8181 7.18468 15.7121 7.38282 15.5601L9.60866 13.5428L13.2019 16.2809L13.2874 16.3309C13.5314 16.4365 13.7652 16.4893 13.9883 16.4893C14.1606 16.4893 14.326 16.4577 14.4841 16.3945C15.0224 16.1785 15.2377 15.6773 15.2603 15.6205L17.9442 1.98961C18.108 1.26161 17.8803 0.891212 17.6601 0.709211ZM7.7787 10.8884L6.55054 14.0885L5.32237 10.0884L14.7383 3.28842L7.7787 10.8884Z" fill="#5C5C5C"/>
</svg>
