<svg width="16" height="17" viewBox="0 0 16 17" fill="none" xmlns="http://www.w3.org/2000/svg">
<path d="M14.0952 0.489258H1.90476C0.854476 0.489258 0 1.34373 0 2.39402V14.5845C0 15.6348 0.854476 16.4893 1.90476 16.4893H14.0952C15.1455 16.4893 16 15.6348 16 14.5845V2.39402C16 1.34373 15.1455 0.489258 14.0952 0.489258ZM12.5737 7.46945C12.4872 7.47745 12.3996 7.48278 12.3109 7.48278C11.3116 7.48278 10.4335 6.96888 9.92267 6.19211C9.92267 8.22983 9.92267 10.5483 9.92267 10.5872C9.92267 12.3811 8.46819 13.8355 6.67429 13.8355C4.88038 13.8355 3.4259 12.3811 3.4259 10.5872C3.4259 8.79326 4.88038 7.33878 6.67429 7.33878C6.7421 7.33878 6.80838 7.34488 6.87505 7.34907V8.94983C6.80838 8.94183 6.74286 8.92964 6.67429 8.92964C5.75848 8.92964 5.01638 9.67173 5.01638 10.5875C5.01638 11.5034 5.75848 12.2454 6.67429 12.2454C7.5901 12.2454 8.39886 11.5239 8.39886 10.6081C8.39886 10.5719 8.41486 3.14373 8.41486 3.14373H9.94476C10.0888 4.51173 11.1931 5.59135 12.5737 5.6904V7.46945Z" fill="#5C5C5C"/>
</svg>
