<svg width="15" height="9" viewBox="0 0 15 9" fill="none" xmlns="http://www.w3.org/2000/svg">
<path d="M14.7402 7.29778C14.8364 7.39393 14.8845 7.50451 14.8845 7.62951C14.8845 7.75451 14.8364 7.8747 14.7402 7.99008L13.9902 8.71124C13.8941 8.80739 13.7835 8.85547 13.6585 8.85547C13.5335 8.85547 13.4229 8.80739 13.3268 8.71124L7.49985 2.91316L1.67293 8.71124C1.57677 8.80739 1.4662 8.85547 1.3412 8.85547C1.2162 8.85547 1.10562 8.80739 1.00947 8.71124L0.259465 7.99008C0.163311 7.8747 0.115234 7.75451 0.115234 7.62951C0.115234 7.50451 0.163311 7.39393 0.259465 7.29778L7.1537 0.403545C7.24985 0.307391 7.36523 0.259315 7.49985 0.259315C7.63447 0.259315 7.74985 0.307391 7.846 0.403545L14.7402 7.29778Z" fill="white"/>
</svg>
