<svg width="60" height="60" viewBox="0 0 60 60" fill="none" xmlns="http://www.w3.org/2000/svg">
<g filter="url(#filter0_i_384_1200)">
<path d="M0 17.7273C0 7.93677 7.93677 0 17.7273 0H42.2727C52.0632 0 60 7.93677 60 17.7273V42.2727C60 52.0632 52.0632 60 42.2727 60H17.7273C7.93677 60 0 52.0632 0 42.2727V17.7273Z" fill="#EEF9FF"/>
</g>
<g opacity="0.5" filter="url(#filter1_f_384_1200)">
<g clip-path="url(#clip0_384_1200)">
<g filter="url(#filter2_i_384_1200)">
<path d="M19.0898 42.5509C19.0898 38.5541 19.0898 34.5574 19.0898 30.5597C19.2553 30.493 19.4216 30.3684 19.5871 30.3684C30.6169 30.3595 41.6466 30.3604 52.6764 30.3604C53.0891 30.3604 53.179 30.4529 53.179 30.873C53.1799 34.5921 53.1852 38.3112 53.171 42.0302C53.1692 42.4343 53.1043 42.8534 52.9824 43.2379C52.4745 44.8389 51.0664 45.8134 49.3061 45.8143C40.6513 45.8152 31.9956 45.8152 23.3408 45.8152C23.1299 45.8152 22.9182 45.8232 22.7083 45.8107C21.2362 45.72 20.1395 45.032 19.4777 43.7087C19.2971 43.3491 19.2162 42.9389 19.0898 42.5509ZM27.6121 38.8754C27.6121 38.709 27.6157 38.5425 27.6112 38.3761C27.5952 37.7398 27.1505 37.2993 26.5091 37.2895C26.1542 37.2842 25.7993 37.2788 25.4444 37.2922C24.876 37.3135 24.4455 37.7478 24.4188 38.3156C24.409 38.515 24.4295 38.7161 24.4135 38.9145C24.3201 40.0626 24.7871 40.5075 26.0004 40.5075C27.2341 40.5075 27.71 40.0982 27.6121 38.8754Z" fill="#0080D0"/>
</g>
<g filter="url(#filter3_f_384_1200)">
<path d="M51.8174 41.8032C51.8174 38.5594 51.8174 35.3155 51.8174 32.071C51.6652 32.0168 51.5121 31.9157 51.3599 31.9157C41.2125 31.9085 31.0651 31.9092 20.9177 31.9092C20.538 31.9092 20.4553 31.9843 20.4553 32.3252C20.4545 35.3437 20.4496 38.3622 20.4627 41.3807C20.4643 41.7086 20.5241 42.0488 20.6362 42.3608C21.1034 43.6602 22.3989 44.4511 24.0184 44.4519C31.9808 44.4526 39.9441 44.4526 47.9065 44.4526C48.1005 44.4526 48.2952 44.4591 48.4884 44.449C49.8427 44.3753 50.8517 43.817 51.4606 42.7429C51.6267 42.4511 51.7012 42.1181 51.8174 41.8032ZM43.9769 38.8201C43.9769 38.685 43.9736 38.55 43.9777 38.4149C43.9924 37.8985 44.4016 37.5409 44.9916 37.533C45.3181 37.5287 45.6446 37.5243 45.9712 37.5352C46.4941 37.5525 46.8902 37.905 46.9147 38.3658C46.9237 38.5276 46.9049 38.6908 46.9196 38.8519C47.0055 39.7837 46.5759 40.1448 45.4597 40.1448C44.3247 40.1448 43.8869 39.8126 43.9769 38.8201Z" fill="url(#paint0_linear_384_1200)"/>
</g>
<path d="M19.0898 25.6317C19.2455 25.1849 19.3398 24.7034 19.5693 24.2976C20.2871 23.0241 21.4114 22.3789 22.8738 22.3709C24.9934 22.3584 27.1122 22.3673 29.2319 22.3673C35.9343 22.3673 42.6366 22.3656 49.339 22.3682C51.1918 22.3691 52.7155 23.4985 53.058 25.2641C53.2252 26.1229 53.1558 27.0298 53.1603 27.9153C53.1612 28.0185 52.9646 28.1395 52.8383 28.2205C52.7751 28.2606 52.6648 28.2294 52.5768 28.2294C41.6137 28.2294 30.6498 28.2303 19.6867 28.2214C19.4874 28.2214 19.2882 28.0968 19.0898 28.0301C19.0898 27.23 19.0898 26.4308 19.0898 25.6317Z" fill="url(#paint1_linear_384_1200)"/>
<g filter="url(#filter4_f_384_1200)">
<path d="M19.9082 25.6078C20.0564 25.2761 20.1462 24.9186 20.3648 24.6172C21.0483 23.6716 22.119 23.1925 23.5115 23.1866C25.5301 23.1773 27.5477 23.1839 29.5662 23.1839C35.9488 23.1839 42.3313 23.1826 48.7138 23.1846C50.4782 23.1852 51.9292 24.0238 52.2553 25.3349C52.4145 25.9726 52.3484 26.6459 52.3527 27.3034C52.3535 27.3801 52.1663 27.47 52.0461 27.5301C51.9859 27.5598 51.8809 27.5367 51.797 27.5367C41.3572 27.5367 30.9164 27.5374 20.4766 27.5308C20.2868 27.5308 20.0971 27.4382 19.9082 27.3887C19.9082 26.7946 19.9082 26.2012 19.9082 25.6078Z" fill="url(#paint2_linear_384_1200)"/>
</g>
<g filter="url(#filter5_f_384_1200)">
<path d="M21.2725 26.0519C21.4543 25.4155 22.2816 24.1701 24.1361 24.2792" stroke="white" stroke-width="0.545455" stroke-linecap="round"/>
</g>
<g filter="url(#filter6_f_384_1200)">
<path d="M24.1357 42.681C23.1812 42.7265 21.2721 42.2174 21.2721 39.8174" stroke="white" stroke-width="0.545455" stroke-linecap="round"/>
</g>
</g>
</g>
<g clip-path="url(#clip1_384_1200)">
<g filter="url(#filter7_i_384_1200)">
<path d="M46.0577 25.6327C46.31 26.9781 46.4781 28.1554 46.4781 29.7531C46.4781 38.6668 39.2463 45.8986 30.3327 45.8986C21.4191 45.8986 14.1872 38.6668 14.1872 29.7531C14.1872 20.8395 21.4191 13.3554 30.3327 13.3554C31.2577 13.3554 32.435 13.3554 33.5281 13.6077C33.9486 12.935 34.4531 12.2622 35.1259 11.7577C33.6122 11.3372 32.2668 11.085 30.5009 11.085C20.2418 11.085 12.085 19.4941 12.085 29.5009C12.085 39.5077 20.4941 47.9168 30.5009 47.9168C40.5077 47.9168 48.9168 39.5077 48.9168 29.5009C48.9168 27.6509 48.6645 25.5486 47.9918 23.6145C47.4872 24.3713 46.8145 25.2122 46.0577 25.6327ZM41.2645 25.2122C44.9645 25.2122 48.0759 22.185 48.0759 18.4009C48.0759 14.6168 45.0486 11.5895 41.2645 11.5895C37.5645 11.5895 34.4531 14.6168 34.4531 18.4009C34.4531 22.185 37.3963 25.2122 41.2645 25.2122Z" fill="#0080D0"/>
<path d="M25.1608 29.5009C25.1608 26.7259 27.4312 24.2873 30.3744 24.2873C33.2335 24.2873 35.5881 26.5577 35.5881 29.5009C35.5881 32.36 33.3176 34.7146 30.3744 34.7146C27.4312 34.8827 25.1608 32.5282 25.1608 29.5009ZM18.0971 29.5009C18.0971 36.3123 23.7312 41.8623 30.4585 41.8623C37.1858 41.8623 42.904 36.3123 42.904 29.5009C42.904 28.5759 42.904 27.6509 42.6517 26.9782C42.2312 26.9782 41.7267 26.9782 41.3062 26.9782C36.3449 26.9782 32.3926 23.0259 32.3926 18.0646C32.3926 17.8123 32.3926 17.6441 32.3926 17.3918C31.7199 17.3918 31.0471 17.1396 30.5426 17.1396C23.7312 17.1396 18.0971 22.6896 18.0971 29.5009Z" fill="#0080D0"/>
</g>
<g filter="url(#filter8_f_384_1200)">
<path d="M46.0577 25.6327C46.31 26.9781 46.4781 28.1554 46.4781 29.7531C46.4781 38.6668 39.2463 45.8986 30.3327 45.8986C21.4191 45.8986 14.1872 38.6668 14.1872 29.7531C14.1872 20.8395 21.4191 13.3554 30.3327 13.3554C31.2577 13.3554 32.435 13.3554 33.5281 13.6077C33.9486 12.935 34.4531 12.2622 35.1259 11.7577C33.6122 11.3372 32.2668 11.085 30.5009 11.085C20.2418 11.085 12.085 19.4941 12.085 29.5009C12.085 39.5077 20.4941 47.9168 30.5009 47.9168C40.5077 47.9168 48.9168 39.5077 48.9168 29.5009C48.9168 27.6509 48.6645 25.5486 47.9918 23.6145C47.4872 24.3713 46.8145 25.2122 46.0577 25.6327ZM41.2645 25.2122C44.9645 25.2122 48.0759 22.185 48.0759 18.4009C48.0759 14.6168 45.0486 11.5895 41.2645 11.5895C37.5645 11.5895 34.4531 14.6168 34.4531 18.4009C34.4531 22.185 37.3963 25.2122 41.2645 25.2122Z" fill="url(#paint3_linear_384_1200)"/>
<path d="M25.1608 29.5009C25.1608 26.7259 27.4312 24.2873 30.3744 24.2873C33.2335 24.2873 35.5881 26.5577 35.5881 29.5009C35.5881 32.36 33.3176 34.7146 30.3744 34.7146C27.4312 34.8827 25.1608 32.5282 25.1608 29.5009ZM18.0971 29.5009C18.0971 36.3123 23.7312 41.8623 30.4585 41.8623C37.1858 41.8623 42.904 36.3123 42.904 29.5009C42.904 28.5759 42.904 27.6509 42.6517 26.9782C42.2312 26.9782 41.7267 26.9782 41.3062 26.9782C36.3449 26.9782 32.3926 23.0259 32.3926 18.0646C32.3926 17.8123 32.3926 17.6441 32.3926 17.3918C31.7199 17.3918 31.0471 17.1396 30.5426 17.1396C23.7312 17.1396 18.0971 22.6896 18.0971 29.5009Z" fill="url(#paint4_linear_384_1200)"/>
</g>
<g filter="url(#filter9_f_384_1200)">
<path d="M26.5762 37.9035C24.7075 37.9924 20.9701 36.9967 20.9701 32.3027" stroke="white" stroke-width="0.545455" stroke-linecap="round"/>
</g>
<g filter="url(#filter10_f_384_1200)">
<circle cx="41.1518" cy="18.8482" r="5.60606" transform="rotate(90 41.1518 18.8482)" fill="url(#paint5_linear_384_1200)"/>
</g>
<g filter="url(#filter11_f_384_1200)">
<path d="M42.273 14.8797C43.015 14.8919 44.6039 15.4264 45.0239 17.4666" stroke="white" stroke-width="0.545455" stroke-linecap="round"/>
</g>
</g>
<defs>
<filter id="filter0_i_384_1200" x="0" y="0" width="64.6364" height="66" filterUnits="userSpaceOnUse" color-interpolation-filters="sRGB">
<feFlood flood-opacity="0" result="BackgroundImageFix"/>
<feBlend mode="normal" in="SourceGraphic" in2="BackgroundImageFix" result="shape"/>
<feColorMatrix in="SourceAlpha" type="matrix" values="0 0 0 0 0 0 0 0 0 0 0 0 0 0 0 0 0 0 127 0" result="hardAlpha"/>
<feOffset dx="4.63636" dy="6"/>
<feGaussianBlur stdDeviation="3.68182"/>
<feComposite in2="hardAlpha" operator="arithmetic" k2="-1" k3="1"/>
<feColorMatrix type="matrix" values="0 0 0 0 0.85098 0 0 0 0 0.937255 0 0 0 0 0.945098 0 0 0 1 0"/>
<feBlend mode="normal" in2="shape" result="effect1_innerShadow_384_1200"/>
</filter>
<filter id="filter1_f_384_1200" x="12.2717" y="15.5451" width="47.7282" height="37.0905" filterUnits="userSpaceOnUse" color-interpolation-filters="sRGB">
<feFlood flood-opacity="0" result="BackgroundImageFix"/>
<feBlend mode="normal" in="SourceGraphic" in2="BackgroundImageFix" result="shape"/>
<feGaussianBlur stdDeviation="3.40909" result="effect1_foregroundBlur_384_1200"/>
</filter>
<filter id="filter2_i_384_1200" x="17.7262" y="30.3604" width="35.4545" height="15.7298" filterUnits="userSpaceOnUse" color-interpolation-filters="sRGB">
<feFlood flood-opacity="0" result="BackgroundImageFix"/>
<feBlend mode="normal" in="SourceGraphic" in2="BackgroundImageFix" result="shape"/>
<feColorMatrix in="SourceAlpha" type="matrix" values="0 0 0 0 0 0 0 0 0 0 0 0 0 0 0 0 0 0 127 0" result="hardAlpha"/>
<feOffset dx="-1.36364" dy="0.272727"/>
<feGaussianBlur stdDeviation="1.09091"/>
<feComposite in2="hardAlpha" operator="arithmetic" k2="-1" k3="1"/>
<feColorMatrix type="matrix" values="0 0 0 0 1 0 0 0 0 1 0 0 0 0 1 0 0 0 0.25 0"/>
<feBlend mode="normal" in2="shape" result="effect1_innerShadow_384_1200"/>
</filter>
<filter id="filter3_f_384_1200" x="14.1814" y="25.6365" width="43.9087" height="25.0914" filterUnits="userSpaceOnUse" color-interpolation-filters="sRGB">
<feFlood flood-opacity="0" result="BackgroundImageFix"/>
<feBlend mode="normal" in="SourceGraphic" in2="BackgroundImageFix" result="shape"/>
<feGaussianBlur stdDeviation="3.13636" result="effect1_foregroundBlur_384_1200"/>
</filter>
<filter id="filter4_f_384_1200" x="19.3627" y="22.6362" width="33.545" height="5.45419" filterUnits="userSpaceOnUse" color-interpolation-filters="sRGB">
<feFlood flood-opacity="0" result="BackgroundImageFix"/>
<feBlend mode="normal" in="SourceGraphic" in2="BackgroundImageFix" result="shape"/>
<feGaussianBlur stdDeviation="0.272727" result="effect1_foregroundBlur_384_1200"/>
</filter>
<filter id="filter5_f_384_1200" x="20.4545" y="23.4545" width="4.50009" height="3.4161" filterUnits="userSpaceOnUse" color-interpolation-filters="sRGB">
<feFlood flood-opacity="0" result="BackgroundImageFix"/>
<feBlend mode="normal" in="SourceGraphic" in2="BackgroundImageFix" result="shape"/>
<feGaussianBlur stdDeviation="0.272727" result="effect1_foregroundBlur_384_1200"/>
</filter>
<filter id="filter6_f_384_1200" x="19.0899" y="37.6358" width="7.22736" height="7.22932" filterUnits="userSpaceOnUse" color-interpolation-filters="sRGB">
<feFlood flood-opacity="0" result="BackgroundImageFix"/>
<feBlend mode="normal" in="SourceGraphic" in2="BackgroundImageFix" result="shape"/>
<feGaussianBlur stdDeviation="0.954546" result="effect1_foregroundBlur_384_1200"/>
</filter>
<filter id="filter7_i_384_1200" x="10.7213" y="11.085" width="38.1957" height="37.1048" filterUnits="userSpaceOnUse" color-interpolation-filters="sRGB">
<feFlood flood-opacity="0" result="BackgroundImageFix"/>
<feBlend mode="normal" in="SourceGraphic" in2="BackgroundImageFix" result="shape"/>
<feColorMatrix in="SourceAlpha" type="matrix" values="0 0 0 0 0 0 0 0 0 0 0 0 0 0 0 0 0 0 127 0" result="hardAlpha"/>
<feOffset dx="-1.36364" dy="0.272727"/>
<feGaussianBlur stdDeviation="1.09091"/>
<feComposite in2="hardAlpha" operator="arithmetic" k2="-1" k3="1"/>
<feColorMatrix type="matrix" values="0 0 0 0 1 0 0 0 0 1 0 0 0 0 1 0 0 0 0.25 0"/>
<feBlend mode="normal" in2="shape" result="effect1_innerShadow_384_1200"/>
</filter>
<filter id="filter8_f_384_1200" x="5.81223" y="4.81223" width="49.3775" height="49.3775" filterUnits="userSpaceOnUse" color-interpolation-filters="sRGB">
<feFlood flood-opacity="0" result="BackgroundImageFix"/>
<feBlend mode="normal" in="SourceGraphic" in2="BackgroundImageFix" result="shape"/>
<feGaussianBlur stdDeviation="3.13636" result="effect1_foregroundBlur_384_1200"/>
</filter>
<filter id="filter9_f_384_1200" x="18.7882" y="30.1212" width="9.96955" height="9.96955" filterUnits="userSpaceOnUse" color-interpolation-filters="sRGB">
<feFlood flood-opacity="0" result="BackgroundImageFix"/>
<feBlend mode="normal" in="SourceGraphic" in2="BackgroundImageFix" result="shape"/>
<feGaussianBlur stdDeviation="0.954546" result="effect1_foregroundBlur_384_1200"/>
</filter>
<filter id="filter10_f_384_1200" x="35.0004" y="12.6967" width="12.3028" height="12.3028" filterUnits="userSpaceOnUse" color-interpolation-filters="sRGB">
<feFlood flood-opacity="0" result="BackgroundImageFix"/>
<feBlend mode="normal" in="SourceGraphic" in2="BackgroundImageFix" result="shape"/>
<feGaussianBlur stdDeviation="0.272727" result="effect1_foregroundBlur_384_1200"/>
</filter>
<filter id="filter11_f_384_1200" x="41.4545" y="14.062" width="4.38778" height="4.22275" filterUnits="userSpaceOnUse" color-interpolation-filters="sRGB">
<feFlood flood-opacity="0" result="BackgroundImageFix"/>
<feBlend mode="normal" in="SourceGraphic" in2="BackgroundImageFix" result="shape"/>
<feGaussianBlur stdDeviation="0.272727" result="effect1_foregroundBlur_384_1200"/>
</filter>
<linearGradient id="paint0_linear_384_1200" x1="51.8174" y1="36.2648" x2="23.0513" y2="46.372" gradientUnits="userSpaceOnUse">
<stop offset="0.442353" stop-color="white" stop-opacity="0"/>
<stop offset="1" stop-color="white" stop-opacity="0.78"/>
</linearGradient>
<linearGradient id="paint1_linear_384_1200" x1="23.3171" y1="20.8638" x2="44.5898" y2="37.9092" gradientUnits="userSpaceOnUse">
<stop offset="0.156974" stop-color="#48E9FF"/>
<stop offset="0.734375" stop-color="#4159FF"/>
<stop offset="1" stop-color="#CE41FF"/>
</linearGradient>
<linearGradient id="paint2_linear_384_1200" x1="27.5446" y1="22.2271" x2="28.5743" y2="27.8321" gradientUnits="userSpaceOnUse">
<stop stop-color="white"/>
<stop offset="1" stop-color="white" stop-opacity="0"/>
</linearGradient>
<linearGradient id="paint3_linear_384_1200" x1="12.085" y1="23.8725" x2="49.3017" y2="29.1031" gradientUnits="userSpaceOnUse">
<stop offset="0.442353" stop-color="white" stop-opacity="0"/>
<stop offset="1" stop-color="white" stop-opacity="0.78"/>
</linearGradient>
<linearGradient id="paint4_linear_384_1200" x1="12.085" y1="23.8725" x2="49.3017" y2="29.1031" gradientUnits="userSpaceOnUse">
<stop offset="0.442353" stop-color="white" stop-opacity="0"/>
<stop offset="1" stop-color="white" stop-opacity="0.78"/>
</linearGradient>
<linearGradient id="paint5_linear_384_1200" x1="38.1838" y1="10.7895" x2="45.2793" y2="15.9826" gradientUnits="userSpaceOnUse">
<stop stop-color="white"/>
<stop offset="1" stop-color="white" stop-opacity="0"/>
</linearGradient>
<clipPath id="clip0_384_1200">
<rect width="34.0909" height="23.4545" fill="white" transform="translate(19.0898 22.3633)"/>
</clipPath>
<clipPath id="clip1_384_1200">
<rect width="37" height="37" fill="white" transform="translate(12 11)"/>
</clipPath>
</defs>
</svg>
