<svg width="18" height="15" viewBox="0 0 18 15" fill="none" xmlns="http://www.w3.org/2000/svg">
<path d="M17.4976 2.89551C17.3312 1.93335 16.5383 1.23267 15.6183 1.01392C14.2414 0.708008 11.6933 0.489258 8.93638 0.489258C6.18108 0.489258 3.59217 0.708008 2.2137 1.01392C1.29527 1.23267 0.500816 1.88892 0.334421 2.89551C0.166395 3.98926 0 5.52051 0 7.48926C0 9.45801 0.166395 10.9893 0.375204 12.083C0.54323 13.0452 1.33605 13.7458 2.25449 13.9646C3.71615 14.2705 6.22186 14.4893 8.97879 14.4893C11.7357 14.4893 14.2414 14.2705 15.7031 13.9646C16.6215 13.7458 17.4144 13.0896 17.5824 12.083C17.7488 10.9893 17.9576 9.41357 18 7.48926C17.9152 5.52051 17.7064 3.98926 17.4976 2.89551ZM6.68189 10.5518V4.42676L11.7765 7.48926L6.68189 10.5518Z" fill="#5C5C5C"/>
</svg>
